<svg width="48" height="32" viewBox="0 0 48 32" fill="none" xmlns="http://www.w3.org/2000/svg">
<g id="americanexpress-color-large">
<rect id="Rectangle" width="48" height="32" rx="4" fill="white"/>
<g id="amex">
<path id="Path" d="M8.88 17.9V26.06H17.14L18 24.84L18.84 26.06H23.89V24.22H24.45C24.9584 24.2244 25.4643 24.1502 25.95 24V26.06H29.38V24.6L30.54 26.06H46.16C46.802 26.0712 47.4338 25.8977 47.98 25.56V29C47.5224 30.7722 45.9203 32.0078 44.09 32H4C1.79086 32 0 30.2091 0 28V15.4H2.28L2.75 14.18H3.87L4.33 15.4H22.67V13.94L23.83 15.4H28.64V14.66C29.3453 15.1621 30.1945 15.4217 31.06 15.4H33.93L34.39 14.18H35.51L36 15.4H40.9V13.82L41.9 15.4H45.28V7.24H41.69V8.9L40.62 7.24H37.48V9.34L36.48 7.24H31.14C30.2366 7.21382 29.3524 7.50384 28.64 8.06V7.24H11L10.4 9L9.8 7.2H5.8V9.3L4.86 7.2H1.6L0 11V4C0 1.79086 1.79086 1.31011e-07 4 1.31011e-07H44.09C45.9278 -0.0169872 47.5406 1.2205 48 3V17.9H18.86L18 19.1L17.16 17.9H8.88Z" fill="#296DB6"/>
<path id="Shape" fill-rule="evenodd" clip-rule="evenodd" d="M21.32 19.2H24.43V19.16C24.9479 19.1165 25.4595 19.2976 25.8345 19.6574C26.2096 20.0171 26.4119 20.5208 26.39 21.04C26.4028 21.5655 26.1927 22.0718 25.8116 22.4338C25.4306 22.7958 24.9141 22.9797 24.39 22.94H22.69V24.8H21.32V19.2ZM14.71 20.36V19.16H10.18V24.8H14.71V23.6H11.54V22.6H14.65V21.38H11.54V20.38L14.71 20.36ZM18.8 22L21.06 19.2H19.4L18 20.94L16.61 19.16H14.91L17.2 22L15 24.8H16.64L18 23L19.36 24.82H21.08L18.8 22ZM24.31 21.78H22.69V20.36H24.31C24.6911 20.36 25 20.6689 25 21.05C25 21.4311 24.6911 21.74 24.31 21.74V21.78ZM32.17 20.79C32.286 21.7731 31.5831 22.664 30.6 22.78L32.49 24.8H30.78L29.1 22.8H28.48V24.8H27.12V19.22H30.18C31.1631 19.104 32.054 19.8069 32.17 20.79ZM30.06 21.66H28.48V20.36H30.06C30.2378 20.3369 30.4169 20.3918 30.5511 20.5107C30.6853 20.6296 30.7615 20.8007 30.76 20.98C30.7649 21.1604 30.6898 21.3337 30.5547 21.4533C30.4196 21.573 30.2385 21.6267 30.06 21.6V21.66ZM37.36 19.22V20.42L34.19 20.38V21.38H37.28V22.6H34.19V23.6H37.36V24.8H32.81V19.22H37.36ZM41.13 21.42H39.82C39.6175 21.4607 39.4105 21.3753 39.2956 21.2036C39.1808 21.032 39.1808 20.808 39.2956 20.6364C39.4105 20.4647 39.6175 20.3793 39.82 20.42H42.25L42.79 19.22H39.86C39.3615 19.1622 38.8623 19.3225 38.4906 19.6597C38.1189 19.9969 37.9109 20.4782 37.92 20.98C37.8896 21.4469 38.0691 21.903 38.4094 22.2241C38.7498 22.5451 39.2157 22.6976 39.68 22.64H41C41.2025 22.5993 41.4095 22.6847 41.5244 22.8564C41.6392 23.028 41.6392 23.252 41.5244 23.4236C41.4095 23.5953 41.2025 23.6807 41 23.64H38.08V24.84H41C41.5039 24.8812 42.0011 24.7024 42.3634 24.3497C42.7257 23.997 42.9177 23.5049 42.89 23C42.9153 22.5378 42.7326 22.0885 42.392 21.775C42.0514 21.4615 41.5885 21.3166 41.13 21.38V21.42ZM47.46 20.42H45.03L45 20.38C44.7975 20.3393 44.5905 20.4247 44.4756 20.5964C44.3608 20.768 44.3608 20.992 44.4756 21.1636C44.5905 21.3353 44.7975 21.4207 45 21.38H46.36C47.0518 21.3089 47.7118 21.6871 48 22.32V23.66C47.7246 24.4224 46.9666 24.9003 46.16 24.82H43.29V23.62H46.18C46.3825 23.6607 46.5895 23.5753 46.7044 23.4036C46.8192 23.232 46.8192 23.008 46.7044 22.8364C46.5895 22.6647 46.3825 22.5793 46.18 22.62H44.89C44.4257 22.6776 43.9598 22.5251 43.6194 22.2041C43.2791 21.883 43.0996 21.4269 43.13 20.96C43.1209 20.4582 43.3289 19.9769 43.7006 19.6397C44.0723 19.3025 44.5715 19.1422 45.07 19.2H48L47.46 20.42Z" fill="#296DB6"/>
<path id="Shape_2" fill-rule="evenodd" clip-rule="evenodd" d="M25.45 10.28C25.4719 11.1815 24.8053 11.9521 23.91 12.06L25.79 14.14H24.09L22.41 12.14H21.79V14.14H20.4V8.5H23.45C23.9596 8.43317 24.473 8.59111 24.8569 8.93278C25.2408 9.27446 25.4573 9.76612 25.45 10.28ZM4.23 8.5H2.45L0 14.14H1.48L2 13H4.63L5.11 14.18H6.65L4.23 8.5ZM2.38 11.86L2.93 10.54L3.29 9.66L3.65 10.54L4.19 11.86H2.38ZM10.6 11.76L11.7 8.5H13.89V14.14H12.57V10.44V9.58L12.31 10.44L11 14.14H9.8L8.52 10.44L8.24 9.58V10.44V14.14H6.91V8.5H9.12L10.24 11.76L10.42 12.38L10.6 11.76ZM19.5 9.7V8.5H15V14.14H19.5V12.94H16.33V11.94H19.42V10.72H16.33V9.72L19.5 9.7ZM23.37 10.94H21.79V9.7H23.37C23.5471 9.68019 23.7243 9.73632 23.8577 9.85449C23.9912 9.97265 24.0683 10.1418 24.07 10.32C24.0749 10.5004 23.9998 10.6737 23.8647 10.7933C23.7296 10.913 23.5485 10.9667 23.37 10.94ZM26.11 14.14V8.5H27.48V14.14H26.11ZM31.11 9.72H32.58V8.5H31C30.2562 8.45299 29.5291 8.7337 29.0099 9.26831C28.4907 9.80292 28.2313 10.5379 28.3 11.28V11.36C28.2164 12.0915 28.4596 12.8226 28.9645 13.3583C29.4694 13.8941 30.1849 14.1801 30.92 14.14H31L31.55 12.94H31.1C30.685 12.9613 30.2819 12.7972 29.9999 12.492C29.7179 12.1868 29.586 11.772 29.64 11.36V11.28C29.5925 10.8712 29.7272 10.4621 30.0085 10.1616C30.2897 9.86113 30.6889 9.69961 31.1 9.72H31.11ZM34.09 8.5H35.89L38.3 14.18H36.76L36.28 13H33.61L33.13 14.14H31.67L34.09 8.5ZM34.05 11.86L34.57 10.54L34.93 9.66L35.27 10.54L35.81 11.86H34.05ZM42.61 11.5V8.5H44V14.14H42.35L40.26 10.96L39.9 10.34V11V14.18H38.56V8.54H40.23L42.23 11.54L42.61 12.18V11.5Z" fill="#296DB6"/>
</g>
</g>
</svg>
