<svg id="vector" xmlns="http://www.w3.org/2000/svg" width="179.4" height="318.7" viewBox="0 0 179.4 318.7"><path fill="#FFFFFF" d="M76.4,318.7c-0.4,0 -0.8,-0.1 -1.2,-0.2c-1.4,-0.5 -2.4,-1.8 -2.4,-3.3l-0.1,-10.3l-3.1,-1.8c-1.6,-0.9 -2.2,-2.8 -1.6,-4.5l0.6,-1.5c0.5,-1.3 1.8,-2.2 3.2,-2.3h0.8v-1.2l-3.5,-1.8c-1.6,-0.9 -2.3,-2.8 -1.7,-4.5l0.6,-1.5c0.5,-1.3 1.8,-2.2 3.2,-2.3l1.3,-0.1v-1.7l-4,-2.2c-1.7,-0.9 -2.4,-3 -1.5,-4.8l0.7,-1.4c0.6,-1.2 1.8,-1.9 3.1,-2l1.6,-0.1v-1.3l-3.7,-1.8c-1.8,-0.9 -2.5,-3 -1.7,-4.8l0.7,-1.5c0.6,-1.2 1.8,-2 3.1,-2.1l1.3,0v-1.4l-4.2,-2.4c-1.5,-0.9 -2.2,-2.6 -1.6,-4.3l0.5,-1.5c0.5,-1.4 1.8,-2.4 3.3,-2.5l2,-0.1v-2.4l-4.9,-2.6c-1.6,-0.8 -2.3,-2.7 -1.7,-4.4l5.5,-15.7l0,0c-0.2,-0.5 -0.4,-1.1 -0.3,-1.6c0,-0.5 0.1,-0.9 0.2,-1.4l5.9,-15.5c0.3,-0.7 0.7,-1.2 1.3,-1.6l3.6,-10.4c0.2,-0.6 0.6,-1.2 1.1,-1.6l3.2,-2.6l-4.4,-3.7c-0.3,-0.2 -0.6,-0.5 -0.8,-0.7l-1.2,-1c-0.5,-0.4 -0.9,-1 -1.1,-1.6c-0.1,-0.1 -0.2,-0.3 -0.3,-0.4l-5.4,-5.7L57,162c-3,1 -6.1,1.5 -9,1.6c-1.6,1 -3.1,1.9 -4.7,2.7l-1.8,5.3l0.3,-0.2c0.6,-0.4 1.3,-0.6 2,-0.6h9.7c1.5,0 2.9,1 3.4,2.4l7,9.7h0.8c2,0 3.6,1.6 3.6,3.6v2.9c0,0.5 -0.1,1 -0.3,1.4c0.3,0.5 0.4,1.1 0.4,1.7l-0.1,2.7c0,1.1 -0.5,2 -1.4,2.7l-2.4,1.9l-6.4,9.3c-0.3,0.5 -0.8,0.9 -1.3,1.2l-5.3,2.8c-0.5,0.3 -1.1,0.4 -1.7,0.4c-0.1,0 -0.2,0 -0.3,0h-9.1c-1.8,0 -3.3,-1.3 -3.6,-3l-0.9,-5.5c-0.5,0.2 -1,0.3 -1.6,0.3c-1.1,0 -2.1,-0.4 -3.1,-0.9c-0.7,-0.4 -1.4,-0.8 -1.8,-1.2c-0.6,0.1 -1.2,0.1 -1.9,0.1c-6.9,0 -11.4,-3.6 -12.1,-9.7c-0.3,-1.6 -0.1,-3.4 0.5,-5.9c0.1,-0.4 0.3,-0.8 0.5,-1.2l4.3,-13.2c-0.4,0 -0.8,0 -1.2,0c-1.1,0 -2.2,-0.1 -3.2,-0.2c-12.9,-1.6 -15.4,-12.2 -16.2,-21.2c-0.8,-11.3 4.3,-25.7 14.5,-40.5c-3.8,-11.9 1.1,-17.2 5.9,-22.3c1,-1 2,-2.1 2.9,-3.3c0.1,-0.1 0.1,-0.1 0.2,-0.2c8.4,-8.8 13.6,-13.8 21.2,-13.8c2.7,0 5.6,0.6 9.5,2c1.4,-0.8 2.8,-1.5 4.1,-2C47.9,49.2 33,31.7 17.2,13.1c-1.5,-1.8 -3.1,-3.6 -4.6,-5.5c-0.5,-0.6 -0.8,-1.3 -0.9,-2.1l-0.1,-1.6c-0.1,-1.6 0.8,-3 2.3,-3.6C14.3,0.1 14.8,0 15.2,0c1,0 2.1,0.5 2.8,1.3c2.8,3.4 5.7,6.7 8.5,10c14.1,16.6 27.6,32.3 37.8,52.5c-7.5,-20 -13.6,-34.5 -28.7,-52.7c-0.4,-0.5 -0.7,-1.2 -0.8,-1.9l-0.2,-1.8c-0.2,-1.6 0.7,-3.1 2.1,-3.7c0.5,-0.2 1,-0.3 1.4,-0.3c1,0 2,0.4 2.7,1.3C59.2,26 66.3,44.6 75.6,69.9c9.8,1.4 19.3,6.6 25.2,13.8c0.6,0.7 1.2,1.5 1.7,2.3c0,-1.6 0.2,-3 0.4,-4.3L103,81c0,-0.3 0.1,-0.5 0.2,-0.8C105.8,69.5 114.3,62 124,62c3,0 5.9,0.7 8.7,2c12.3,0.7 20.1,12.9 20.6,24.5c0,0.1 0,0.1 0,0.2c0,6.5 -2.2,12.6 -6,17.1c0.8,0.6 1.6,1.3 2.3,2c1.8,-3.6 5.2,-6.3 9.3,-7c0.7,-0.1 1.5,-0.2 2.2,-0.2c6.2,0 11.5,4.5 12.6,10.6c0.5,3 0,6 -1.5,8.6c-0.2,0.4 -0.4,0.9 -0.7,1.2l-0.4,9.7c0,0.5 -0.2,1 -0.4,1.5c0.4,0.9 0.6,2 0.6,3.1c0,0.7 -0.1,1.3 -0.2,1.9c0.8,0.7 1.3,1.7 1.3,2.8c0.7,0.7 1.1,1.6 1.1,2.6v4.3c0,0.4 -0.1,0.8 -0.2,1.2l0.6,0.4c2.3,0.6 4.2,2.2 5,4.3c0.8,2 0.6,4.3 -0.4,6.3l-1,10.9c-0.1,0.7 -0.3,1.3 -0.8,1.9l-8.9,11.3l-0.1,1.4c0,0.7 -0.3,1.4 -0.7,2l-1.1,1.5c-0.3,0.4 -0.6,0.7 -1,0.9l-1.7,1.1l-0.3,0.2c-0.7,0.6 -1.5,0.8 -2.3,0.8c-0.5,0 -1.1,-0.1 -1.6,-0.4c-0.9,-0.5 -1.6,-1.3 -1.9,-2.3l-1.5,1.2c-0.4,0.4 -0.8,0.6 -1.3,0.8c-0.4,0.1 -0.8,0.2 -1.1,0.2c-1,0 -2,-0.4 -2.7,-1.2l-1.4,-1.5c-0.7,-0.8 -1,-1.8 -0.9,-2.8l0.2,-2.3l-7.4,-12.7c-0.3,-0.6 -0.5,-1.3 -0.5,-2l0.4,-11.3c-0.6,-3.1 0.3,-5.1 1.2,-6.3c0.8,-1 2.3,-2.2 4.9,-2.5l0.4,-0.2c-0.1,-0.3 -0.1,-0.6 -0.1,-0.9l0.1,-3.6c-3.3,2.4 -7.2,4.1 -11.5,4.9c-3.8,0.8 -9.7,2.1 -14.8,3.2l0.4,2.7c0.3,0.5 0.5,1 0.7,1.5l2.5,4.7c0.2,0.3 0.3,0.6 0.4,1c0.3,1.2 0.4,2.4 0.4,3.7c0.6,1.2 0.5,2.5 -0.3,3.6c-0.2,1.3 -0.5,2.5 -1,3.8c14,3.9 24,17.3 24.1,33c0,0.3 0,0.5 0,0.8l2.3,1.8c1.2,0.9 1.7,2.5 1.2,4l-4.6,13.8c0.3,0.5 0.4,1 0.5,1.6l0.1,1.9c0,0.5 -0.1,1 -0.2,1.5l-5.5,14.3c-0.1,0.3 -0.3,0.6 -0.4,0.8c-0.4,0.6 -0.9,1.1 -1.6,1.4l-4.7,14.2c-0.3,1 -1.1,1.9 -2.2,2.2c-0.4,0.1 -0.8,0.2 -1.2,0.2h-0.1c-0.1,0 -0.3,0 -0.4,0l-1.2,-0.1c0,0.4 -0.2,0.9 -0.4,1.3l-0.7,1.4c-0.6,1.2 -1.7,1.9 -3,2l-6.1,0.3l-2.8,3.3l1.1,0.8c1.4,1 1.9,2.8 1.2,4.4l-0.6,1.4c-0.5,1.3 -1.8,2.1 -3.1,2.2l-6.4,0.3l-2.9,3.4l1,0.8c1.3,1 1.8,2.8 1.1,4.3l-0.6,1.4c-0.5,1.3 -1.8,2.1 -3.1,2.2l-6.1,0.3l-2.8,3.2l0.9,0.6c1.4,1 1.8,2.8 1.2,4.3l-0.6,1.4c-0.5,1.3 -1.8,2.1 -3.2,2.2l-5.3,0.4l-10,11.7C78.4,318.3 77.4,318.7 76.4,318.7zM155.1,168.3c0.9,0 1.8,0.4 2.5,1.1l1.3,1.3c0.3,0.3 0.5,0.6 0.7,0.9h0.1c0.2,-0.2 0.4,-0.4 0.6,-0.6l1.9,-1.5c0.6,-0.5 1.4,-0.8 2.2,-0.8c0.2,0 0.4,0 0.6,0v-0.6l-6.4,-2.2l-4.6,0.9l-0.1,0.6l0.4,1C154.5,168.3 154.8,168.3 155.1,168.3zM91,145.9l-4.1,-5.3c-1,0.8 -2.1,1.7 -3.3,2.7l0,0c0.4,0 0.7,-0.1 1.1,-0.1c2.5,0 4.7,0.9 6.2,2.5C91,145.8 91,145.8 91,145.9zM98.8,139.8c0.3,-0.1 0.6,-0.1 0.9,-0.1c0.2,0 0.5,0 0.7,0.1c0.3,-0.2 0.6,-0.3 1,-0.4l-1.1,-5.9c-0.4,-1 -0.4,-2.1 0.1,-3.1l2.9,-5.6v-0.4c-1.9,2.8 -4.8,6 -8.8,9.7L98.8,139.8z" fill-rule="evenodd" id="path_0"/><path fill="#808080" d="M168.5,158.5l-0.3,0.8l-17.1,-1l0.1,-0.7" id="path_1"/><path fill="#808080" d="M163.7,138.7l0.1,-7c0,0 3.9,-0.2 3.9,3.6C167.7,139.4 163.7,138.7 163.7,138.7z" id="path_2"/><path fill="#ABABAB" d="M166.1,134c0.5,2.7 -1.4,5.4 -4.1,5.8l0,0c-2.7,0.5 -5.4,-1.4 -5.8,-4.1l0,0c-0.5,-2.7 1.4,-5.4 4.1,-5.8l0,0C163,129.4 165.6,131.2 166.1,134L166.1,134z" fill-rule="evenodd" id="path_3"/><path fill="#808080" d="M41.5,159.9L32,188.2c-3.6,-0.2 -7.4,0.4 -10.8,-0.7l7.9,-24L41.5,159.9z" fill-rule="evenodd" id="path_4"/><path fill="#808080" d="M65.2,74.3C53,45.7 34,26.1 15.2,3.7l0.1,1.6c18.6,22 36.7,42 48.5,69.7L65.2,74.3L65.2,74.3z" fill-rule="evenodd" id="path_5"/><path fill="#808080" d="M124.141,65.584c-8.4,0 -15.4,6.8 -17.4,15.9v-0.1l-0.1,0.8c-0.3,1.5 -0.4,3 -0.4,4.5v0.2l1,62.8c0,0 11.8,-5 20.5,-6.8c9.9,-0.2 17.9,-9 17.9,-19.8l-0.3,-3.4c-1.2,-7.2 -5.6,-12.8 -11.6,-15.2c5,-3.7 8.4,-10.3 8.4,-17.9l-0.3,-3.6C140.341,72.784 132.941,65.584 124.141,65.584z" fill-rule="evenodd" id="path_6"/><path fill="#CCCCCC" d="M132.041,67.584c-8.4,0 -15.4,6.8 -17.4,15.9c0,0 0,-0.1 -0.1,-0.1l-0.1,0.8c-0.3,1.5 -0.4,3 -0.4,4.5v0.3l-5.5,62c0,0 18.2,-4.2 26.9,-6c9.7,-1.8 17.9,-9 17.9,-19.8l-0.3,-3.4c-1.1,-7.2 -5.6,-12.8 -11.6,-15.2c5,-3.7 8.4,-10.3 8.4,-17.9C149.341,78.084 142.341,67.784 132.041,67.584z" fill-rule="evenodd" id="path_7"/><path fill="#808080" d="M149.3,155.2L148,169l5.5,9.4l-0.2,8.7l2.1,-1.7l1,-12.2l-1.3,-1.3l-1.7,1.2l0.1,3l-3.3,-8.2l1.1,-10.5l0.3,-2.9L149.3,155.2z" id="path_8"/><path fill="#808080" d="M168.8,140l-9.5,18.6l-0.2,0.1l5.3,-20.2l1.3,-0.4L168.8,140z" id="path_9"/><path fill="#808080" d="M169.9,142.6v4.3l-2.2,1l-3.2,-5.5L169.9,142.6z" id="path_10"/><path fill="#ABABAB" d="M163.9,138.3l3.2,2l-8,18.4l-4.2,-17.4l2.5,-2.6L163.9,138.3L163.9,138.3z" fill-rule="evenodd" id="path_11"/><path fill="#808080" d="M164.7,146.8l7.8,5.1c3.3,0.5 4.2,3.8 2.5,6l-1.1,11.8l-9.6,12.2l-0.1,2.6l-1.1,1.5l-2.2,1.4l1.6,-13.6l1.9,-1.5l-0.2,3.8l7.5,-5.6l1.7,-15l-11.3,-7.8L164.7,146.8z" id="path_12"/><path fill="#ABABAB" d="M159.564,162.022l-11.007,2.117l-0.489,4.656l4.86,8.567l0.265,-4.337l1.159,1.289l-1.115,12.786l-1.387,-1.529l0.334,-3.416l-7.999,-13.705l0.459,-11.738c-0.784,-3.406 0.729,-4.884 3.523,-4.908l9.291,-4.987l3.203,0.184l-1.213,4.783l-10.269,3.666l-0.28,2.66l10.44,0.501L159.564,162.022L159.564,162.022z" fill-rule="evenodd" id="path_13"/><path fill="#ABABAB" d="M158.053,161.914l10.617,3.64l-0.202,4.698l-6.096,7.784l0.356,-4.352l-1.395,1.084l-0.647,12.797l1.545,-1.297l0.137,-3.475L172.124,170.358l1.215,-11.684c1.302,-3.213 -0.027,-4.938 -2.809,-5.383l-8.555,-6.24l-3.219,-0.275l0.57,4.843l9.647,5.023l-0.811,2.287l-8.567,-0.456L158.053,161.914z" fill-rule="evenodd" id="path_14"/><path fill="#616161" d="M129.8,114.4l26.2,-3.3l-3.5,3.8l-15.9,1.8L129.8,114.4z" id="path_15"/><path fill="#999999" d="M134.1,115.3l34.6,-4l0.3,7.2l-34.6,4z" id="path_16"/><path fill="#616161" d="M57.241,157.798l8.6,-6.4l15.7,22.8L81.341,178.598l-6.3,-6.6L57.241,157.798z" fill-rule="evenodd" id="path_17"/><path fill="#ABABAB" d="M58.841,157.398l7.6,-12.8l17.6,14l-4.5,16.2l-3.8,-4.1L58.841,157.398z" fill-rule="evenodd" id="path_18"/><path fill="#474747" d="M32.7,193.7c0.5,2.8 -0.7,5.9 -5.2,5.9c-7.2,0 -8.9,-4.4 -8.5,-8.8C21.8,190.7 29.7,193 32.7,193.7L32.7,193.7z" fill-rule="evenodd" id="path_19"/><path fill="#ABABAB" d="M39.5,162L30,190.3c-3.6,-0.2 -7.4,0.4 -10.8,-0.7l7.9,-24L39.5,162z" fill-rule="evenodd" id="path_20"/><path fill="#474747" d="M145,205.7c0,16.9 -13,30.6 -29,30.6s-29,-13.7 -29,-30.6s13,-30.6 29,-30.6S144.9,188.8 145,205.7L145,205.7z" fill-rule="evenodd" id="path_21"/><path fill="#CCCCCC" d="M117.1,154c5.8,6.8 2.7,18.1 -7,25.2c-9.7,7.1 -22.3,7.3 -28.1,0.5l0,0c-5.8,-6.8 -2.7,-18.1 7,-25.2C98.7,147.3 111.3,147.1 117.1,154z" id="path_22"/><path fill="#474747" d="M113.2,155.4c4.8,5.7 2.2,15.1 -5.8,21s-18.4,6.1 -23.2,0.4c-4.8,-5.7 -2.2,-15.1 5.8,-21C98,149.8 108.4,149.7 113.2,155.4C113.2,155.3 113.2,155.3 113.2,155.4z" id="path_23"/><path fill="#474747" d="M68.7,239.4l7.5,4l42.7,15.6l13.2,1.6l-9.5,-8.3L94.4,242l-19.2,-5.5L68.7,239.4z" fill-rule="evenodd" id="path_24"/><path fill="#474747" d="M125.2,257.7l-48.8,57.4l-1,-74.7C94.2,243.7 105.8,247.8 125.2,257.7z" fill-rule="evenodd" id="path_25"/><path fill="#000000" d="M107.9,249.6l9.5,4.3l-42,2.2l-5.8,-3.3l0.5,-1.5L107.9,249.6z" fill-rule="evenodd" id="path_26"/><path fill="#000000" d="M73.6,238.5l-4.9,0.9l16.1,-46.2L90,189L73.6,238.5z" fill-rule="evenodd" id="path_27"/><path fill="#EEB211" d="M73.6,238.5L90,189l20.4,3.9l-16.9,50.5L73.6,238.5z" fill-rule="evenodd" id="path_28"/><path fill="#FFFFAC" d="M121.3,254l16.9,-51l-27.7,-10.1l-16.9,50.6L121.3,254z" fill-rule="evenodd" id="path_29"/><path fill="#EEB211" d="M132.2,260.6l-11,-6.7l16.9,-51l10.6,8.2L132.2,260.6z" fill-rule="evenodd" id="path_30"/><path fill="#808080" d="M168.2,118.2l-0.7,12.3l-1.2,1.7l0.9,-14.4L168.2,118.2z" id="path_31"/><path fill="#ABABAB" d="M157.3,115.3l10,0.6c0.1,0 0.1,0.1 0.1,0.1l-1.1,16c0,0.1 -0.1,0.1 -0.1,0.1l-10,-0.6c-0.1,0 -0.1,-0.1 -0.1,-0.1l1.1,-16C157.2,115.4 157.2,115.3 157.3,115.3z" id="path_32"/><path fill="#CCCCCC" d="M151.2,142.4l16.5,0.5l0,4.9l-16.6,-0.5z" id="path_33"/><path fill="#999999" d="M160.706,130.194c1.643,1.391 1.352,-0.797 2.5,0.96s-0.719,0.686 -0.173,2.735c0.546,2.049 1.617,0.183 1.424,2.268c-0.103,2.07 -0.921,0.068 -1.689,2.068s1.217,1.092 -0.173,2.735s-0.835,-0.506 -2.592,0.641c-1.757,1.148 0.27,1.538 -1.689,2.068c-2.049,0.546 -0.43,-0.857 -2.516,-1.051c-2.07,-0.103 -0.683,1.425 -2.592,0.641c-2,-0.768 0.203,-0.968 -1.424,-2.268c-1.643,-1.391 -1.352,0.797 -2.5,-0.96s0.719,-0.686 0.173,-2.735s-1.617,-0.183 -1.424,-2.268c0.103,-2.07 0.921,-0.068 1.689,-2.068s-1.217,-1.092 0.173,-2.735s0.835,0.506 2.592,-0.641c1.757,-1.148 -0.27,-1.538 1.689,-2.068c2.049,-0.546 0.43,0.857 2.516,1.051c2.07,0.103 0.683,-1.425 2.592,-0.641C161.192,128.71 159.063,128.804 160.706,130.194L160.706,130.194z" fill-rule="evenodd" id="path_34"/><path fill="#616161" d="M160.052,134.972c0.381,2.171 -1.037,4.192 -3.208,4.573l0,0c-2.171,0.381 -4.192,-1.037 -4.573,-3.208l0,0c-0.381,-2.171 1.037,-4.192 3.208,-4.573l0,0C157.635,131.293 159.671,132.801 160.052,134.972L160.052,134.972z" fill-rule="evenodd" id="path_35"/><path fill="#808080" d="M170.373,111.815c0.878,5.008 -2.457,9.763 -7.466,10.641l0,0c-5.008,0.878 -9.763,-2.457 -10.641,-7.466l0,0c-0.878,-5.008 2.457,-9.763 7.466,-10.641l0,0C164.74,103.471 169.495,106.806 170.373,111.815L170.373,111.815z" fill-rule="evenodd" id="path_36"/><path fill="#CCCCCC" d="M165.285,112.806c0.405,2.312 -1.104,4.462 -3.415,4.868l0,0c-2.312,0.405 -4.462,-1.104 -4.868,-3.415l0,0c-0.405,-2.312 1.104,-4.462 3.415,-4.868l0,0C162.712,108.889 164.88,110.495 165.285,112.806L165.285,112.806z" fill-rule="evenodd" id="path_37"/><path fill="#808080" d="M19.4,188.5c-1,4 -0.6,5.8 1.7,7.3c2.3,1.4 6.2,0.8 9.3,0.4c3.5,-0.4 2.2,-5.5 1.8,-8C28.1,188.7 23.7,189 19.4,188.5L19.4,188.5z" fill-rule="evenodd" id="path_38"/><path fill="#999999" d="M44.3,186.1c0.6,2.7 0,9.9 -1,12.5s0.5,2.2 -2.5,3.2s-0.8,-0.8 -3.9,-1.1s-1.2,1.9 -4,0.4c-2.8,-1.4 0.1,-1.1 -2,-3.5s-2.2,0.5 -3.2,-2.5s0.8,-0.7 1.1,-3.9c0.3,-3.2 -1.9,-1.2 -0.4,-4c1.4,-2.8 1.1,0.1 3.5,-2s-0.5,-2.2 2.5,-3.2s0.8,0.8 3.9,1.1c3.2,0.3 1.2,-1.9 4,-0.4C45.2,184 43.7,183.4 44.3,186.1z" fill-rule="evenodd" id="path_39"/><path fill="#000000" d="M40.8,191.6c0.1,2.1 -1.6,3.9 -3.7,4s-3.9,-1.6 -4,-3.7c0,-0.1 0,-0.2 0,-0.2c-0.1,-2.1 1.6,-3.9 3.7,-4s3.9,1.6 4,3.7C40.8,191.4 40.8,191.5 40.8,191.6z" id="path_40"/><path fill="#ABABAB" d="M55.5,192.4h9.1l-0.1,2.7l-3.4,2.7l-9,-2.8L55.5,192.4z" fill-rule="evenodd" id="path_41"/><path fill="#ABABAB" d="M42.286,209.816l9.1,-3l-2.3,-13.8l2.8,-14.8L41.186,180.616L42.286,209.816z" fill-rule="evenodd" id="path_42"/><path fill="#ABABAB" d="M49.686,209.916l5.3,-2.8l6.9,-10.1c0,0 -2.9,0.4 -3.6,0.4L49.686,209.916z" fill-rule="evenodd" id="path_43"/><path fill="#808080" d="M61.1,195l-9.1,0l0,2.9l1.8,0l-4.2,6.2l-2.6,0l-1.5,-9.6l-7.5,0.5l2.3,14.9l4.9,0l2.7,0l1.7,0l0.1,0l8.6,-12l2.8,0z" fill-rule="evenodd" id="path_44"/><path fill="#808080" d="M55.4,186.5l-1.7,2.6h-2L55.4,186.5z" fill-rule="evenodd" id="path_45"/><path fill="#ABABAB" d="M55.4,186.5h9.1v2.9L61,192l-5.5,-2.6v-2.9H55.4z" fill-rule="evenodd" id="path_46"/><path fill="#999999" d="M43.7,174.4h9.7l-3.9,2.6l-9.5,-0.1L43.7,174.4z" fill-rule="evenodd" id="path_47"/><path fill="#CCCCCC" d="M49.3,177l4,-2.5l8.6,12l-4,2.5L49.3,177z" fill-rule="evenodd" id="path_48"/><path fill="#808080" d="M40,177l-2.3,14.9h7.6l1.4,-9.1h2.6l4.2,6.2h-1.8v2.9h9V189h-2.8l-8.6,-12h-0.1h-1.7h-2.7C44.9,177 40,177 40,177z" fill-rule="evenodd" id="path_49"/><path fill="#474747" d="M45.777,192.962c0,2.7 -1.899,4.9 -4.23,4.9l0,0c-2.331,0 -4.23,-2.2 -4.23,-4.9l0,0c0,-2.7 1.899,-4.9 4.23,-4.9l0,0C43.878,188.062 45.777,190.262 45.777,192.962L45.777,192.962z" fill-rule="evenodd" id="path_50"/><path fill="#CCCCCC" d="M44.396,192.962c0,1.8 -1.295,3.3 -2.849,3.3l0,0c-1.554,0 -2.849,-1.5 -2.849,-3.3l0,0c0,-1.8 1.295,-3.3 2.849,-3.3l0,0C43.101,189.762 44.396,191.162 44.396,192.962L44.396,192.962z" fill-rule="evenodd" id="path_51"/><path fill="#999999" d="M77,156.5l11.5,-8.1l10.3,12c1.5,6.9 -3.7,10.6 -10.1,8.8L77,156.5z" fill-rule="evenodd" id="path_52"/><path fill="#616161" d="M89.1,150.3c0.2,2.8 -2.7,6 -6.4,7.1c-3.7,1.1 -6.2,0.1 -6.3,-2.7c-0.2,-2.8 2.2,-6.3 5.9,-7.5C86,146.1 89,147.5 89.1,150.3L89.1,150.3z" fill-rule="evenodd" id="path_53"/><path fill="#999999" d="M61.9,129.4l3.8,-3l19,24c-0.2,1.8 -1.5,2.9 -3.8,3L61.9,129.4z" id="path_54"/><path fill="#999999" d="M81.7,179.6c12.3,10.4 40.8,-1 36.1,-24.6l4,7.4c3.5,16.3 -19.5,29.9 -33.1,23.2L81.7,179.6z" fill-rule="evenodd" id="path_55"/><path fill="#474747" d="M80.2,206.5c13,-2.6 56.8,12 62.8,21.6l-5.4,15.9c-11.1,-10.1 -49.1,-24 -62.9,-21.6L80.2,206.5z" id="path_56"/><path fill="#000000" d="M106.2,208.9l1,1.6l-5.6,16.2l-13.1,-3.4l-0.5,-1.5l11.7,-1.3L106.2,208.9z" id="path_57"/><path fill="#616161" d="M93.6,206.2l12.6,2.7l-5.5,16l-12.6,-3.1L93.6,206.2z" id="path_58"/><path fill="#000000" d="M88.5,205.1l1,1.6l-6.2,15.8c-2.8,-0.2 -5.5,-0.4 -8.6,0L74,221l7.1,-7.8L88.5,205.1z" id="path_59"/><path fill="#ABABAB" d="M100,160.2c2.6,2.2 2.5,-1.1 4.1,1.8c1.6,2.9 -1.3,0.8 -0.9,4s2.8,1.1 1.9,4c-0.8,2.9 -1.6,-0.4 -3.6,1.9c-2,2.3 1.4,2.6 -1.4,3.8s-1,-1.4 -4.2,-1.4s-0.7,2.6 -3.9,1.4c-3.1,-1.2 0.2,-1.6 -2.4,-3.8s-2.5,1.1 -4.1,-1.8c-1.6,-2.9 1.3,-0.8 0.9,-4s-2.8,-1 -1.9,-4c0.8,-3 1.6,0.4 3.6,-1.9c2,-2.3 -1.4,-2.6 1.4,-3.8s1,1.4 4.2,1.4s0.7,-2.6 3.9,-1.4C100.8,157.6 97.5,157.9 100,160.2L100,160.2z" fill-rule="evenodd" id="path_60"/><path fill="#CCCCCC" d="M100,165.7c0.6,2.8 -1.2,5.2 -3.9,5.4c-2.8,0.2 -5.5,-1.8 -6,-4.6l0,0c-0.6,-2.8 1.2,-5.2 3.9,-5.4C96.7,160.9 99.4,162.9 100,165.7z" fill-rule="evenodd" id="path_61"/><path fill="#000000" d="M114.4,211.2l-1.8,1.1l-6.1,16l13,5.2l1.8,-0.8l-10.7,-8.2L114.4,211.2z" id="path_62"/><path fill="#999999" d="M114.3,211.3l12.9,5.4l-6,16l-12.8,-5.2L114.3,211.3z" id="path_63"/><path fill="#000000" d="M132.5,218.9l-2.1,0.4l-6.4,16.3l9.7,5.4l1.7,-0.7l-8,-8.6L132.5,218.9z" id="path_64"/><path fill="#616161" d="M132.5,218.9l8.4,5.9l-5.5,15.6L126,235L132.5,218.9z" id="path_65"/><path fill="#474747" d="M79.9,205.3l8.6,-0.2L82.4,221l-8.4,-0.2L79.9,205.3z" id="path_66"/><path fill="#000000" d="M142.7,227.7l1.7,0.1l-5.4,16.1c0,0.4 -0.5,0.7 -1.5,0.7l0.2,-0.5l-1,-0.9L142.7,227.7z" id="path_67"/><path fill="#474747" d="M144.4,227.8l0.1,1.9L139,244l-0.7,-0.7L144.4,227.8z" id="path_68"/><path fill="#000000" d="M122.6,260.8l4.3,2.9l-0.7,1.4l-50.3,2.6l-5.8,-2.8l0.7,-1.5L122.6,260.8z" fill-rule="evenodd" id="path_69"/><path fill="#000000" d="M112.3,273l4.3,3l-0.6,1.4l-40,2.1l-5.9,-3.2l0.7,-1.4L112.3,273z" fill-rule="evenodd" id="path_70"/><path fill="#000000" d="M101.8,285.4l4,3l-0.6,1.4L76,291.3l-5.3,-2.8l0.6,-1.5L101.8,285.4z" fill-rule="evenodd" id="path_71"/><path fill="#000000" d="M91.2,297.5l4.1,3l-0.6,1.4l-18.5,0.8l-4.9,-2.8l0.6,-1.5L91.2,297.5z" fill-rule="evenodd" id="path_72"/><path fill="#999999" d="M108.6,122.2l18,-6.6l-2.6,9.8l-20.4,6.6L108.6,122.2z" id="path_73"/><path fill="#616161" d="M110.2,166.7h1.8l4.5,8.7h-1.8L110.2,166.7z" fill-rule="evenodd" id="path_74"/><path fill="#999999" d="M113.8,129.1" fill-rule="evenodd" id="path_75"/><path fill="#999999" d="M98.8,149.9l2.1,-1.6l10.3,13c-0.1,1 -0.8,1.6 -2.1,1.6L98.8,149.9z" id="path_76"/><path fill="#000000" d="M106.157,145.949c0.7,1.2 1.3,-0.6 1.6,0.9c0.3,1.5 -0.9,0.4 -1,2s1.3,0.1 0.7,1.7c-0.6,1.6 -0.9,0 -1.8,1.5c-1,1.5 0.9,0.7 -0.4,2.1c-1.3,1.3 -0.6,-0.5 -2.1,0.6c-1.5,1 0.3,1.2 -1.4,1.9c-1.6,0.7 -0.2,-0.8 -1.9,-0.5c-1.7,0.3 -0.4,1.3 -2,1.2s0.3,-0.9 -1.1,-1.4s-1,1.1 -2.1,0.2c-1.1,-0.9 0.7,-0.8 0,-2s-1.3,0.6 -1.6,-0.9c-0.3,-1.5 0.9,-0.4 1,-2s-1.3,-0.1 -0.7,-1.7c0.6,-1.6 0.9,0 1.8,-1.5c1,-1.5 -0.9,-0.7 0.4,-2.1c1.3,-1.3 0.6,0.5 2.1,-0.6c1.5,-1 -0.3,-1.2 1.4,-1.9c1.6,-0.7 0.2,0.8 1.9,0.5c1.7,-0.3 0.4,-1.3 2,-1.2s-0.3,0.9 1.1,1.4s1,-1.1 2.1,-0.2C107.157,144.849 105.457,144.749 106.157,145.949L106.157,145.949z" fill-rule="evenodd" id="path_77"/><path fill="#000000" d="M102.457,149.749c-0.3,1.3 -1.7,2.3 -3,2.3l0,0c-1.3,0 -2.1,-1 -1.7,-2.3l0,0c0.3,-1.3 1.7,-2.3 3,-2.3l0,0C102.057,147.449 102.857,148.449 102.457,149.749L102.457,149.749z" fill-rule="evenodd" id="path_78"/><path fill="#999999" d="M87.1,134.8l2.1,-1.6l12.2,15.9c-0.1,1 -0.8,1.6 -2.1,1.6L87.1,134.8z" id="path_79"/><path fill="#EEB211" d="M102.7,96.9c1,6.9 1.8,12.9 0,19.8c-1.1,8.6 -16.8,20 -37.3,36.7c-5.9,4.8 -13.4,6.8 -18.9,6.7c-2.6,0 -4.8,1.3 -7,1.4L102.7,96.9z" id="path_80"/><path fill="#000000" d="M21.8,115.3l34.9,-36.7c-14.4,-5.9 -17.5,-4.1 -30.5,9.5c-6.2,7.4 -12.5,10.5 -7.6,23.7L21.8,115.3L21.8,115.3z" fill-rule="evenodd" id="path_81"/><path fill="#FAD94E" d="M97.5,113.3c19.6,-21.8 -13.8,-47 -36.8,-38.6c-25,10.4 -58.9,50.6 -57,76.9c0.8,9.7 3.4,16.7 13.1,17.9C44.6,172.3 79.7,132.7 97.5,113.3L97.5,113.3z" id="path_82"/><path fill="#000000" d="M57.4,85.4c12.2,-8.7 27.6,-2.3 27.4,13c0.3,3.7 -1.5,6.3 -3.6,9.2c-6.1,8.3 -15.9,16.3 -25.8,18.3c-5.1,1.3 -10,-0.4 -14.2,-3.4c-2.7,-2.3 -3.6,-5.5 -2.6,-11.1C41.7,101.8 48.5,91.9 57.4,85.4L57.4,85.4z" fill-rule="evenodd" id="path_83"/><path fill="#474747" d="M122.5,166.9l-3.6,-6.7l-4.3,-30.2l-8.5,2.7l5.9,34l4.5,8.6z" fill-rule="evenodd" id="path_84"/><path fill="#616161" d="M103.7,132l20.9,-6.8l0.1,1.6l-18.6,5.9l5.9,34l-1.8,0z" fill-rule="evenodd" id="path_85"/><path fill="#808080" d="M74.5,76.8C64,48.5 57.5,29.4 38.2,7l0.2,1.8C57.2,31.6 62.4,48.6 73,77C73.7,77.9 74.1,77.4 74.5,76.8L74.5,76.8z" fill-rule="evenodd" id="path_86"/><path fill="#616161" d="M138.4,113.4c1.7,2 1.9,-0.9 3.1,1.5c1.1,2.4 -1.3,0.7 -0.8,3.3s2.1,0.2 1.9,2.8c-0.2,2.6 -1.5,0 -2.4,2.4c-0.9,2.5 1.8,1.2 0.3,3.4c-1.5,2.2 -1.2,-0.8 -3.3,0.9c-2,1.7 0.9,1.9 -1.5,3c-2.4,1.1 -0.7,-1.3 -3.3,-0.8c-2.6,0.5 -0.2,2.1 -2.8,1.9c-2.6,-0.2 0,-1.5 -2.5,-2.3c-2.5,-0.9 -1.2,1.8 -3.4,0.3c-2.2,-1.5 0.8,-1.2 -1,-3.2c-1.7,-2 -1.9,0.9 -3.1,-1.5c-1.1,-2.4 1.3,-0.7 0.8,-3.3c-0.5,-2.6 -2.1,-0.2 -1.9,-2.8c0.2,-2.6 1.5,0 2.4,-2.4c0.9,-2.5 -1.8,-1.2 -0.3,-3.4c1.5,-2.2 1.2,0.8 3.3,-0.9c2,-1.7 -0.9,-1.9 1.5,-3s0.7,1.3 3.3,0.8s0.2,-2.1 2.8,-1.9s0,1.5 2.5,2.3c2.5,0.9 1.2,-1.8 3.4,-0.3S136.7,111.4 138.4,113.4L138.4,113.4z" fill-rule="evenodd" id="path_87"/><path fill="#CCCCCC" d="M136.4,120c0,3.2 -2.6,5.7 -5.8,5.7l0,0c-3.2,0 -5.8,-2.6 -5.8,-5.7l0,0c0,-3.2 2.6,-5.7 5.8,-5.7l0,0C133.8,114.3 136.4,116.8 136.4,120L136.4,120z" fill-rule="evenodd" id="path_88"/></svg>