<svg xmlns:rdf="http://www.w3.org/1999/02/22-rdf-syntax-ns#" xmlns="http://www.w3.org/2000/svg" height="336" width="1275" version="1.1" xmlns:cc="http://creativecommons.org/ns#" xmlns:xlink="http://www.w3.org/1999/xlink" viewBox="0 0 1274.9401 336.004" xmlns:dc="http://purl.org/dc/elements/1.1/">
<defs>
<linearGradient id="i">
<stop stop-color="#666161" offset="0"/>
<stop offset="1"/>
</linearGradient>
<linearGradient id="j">
<stop offset="0"/>
<stop offset=".29464"/>
<stop stop-color="#666161" offset=".81107"/>
<stop offset="1"/>
</linearGradient>
<linearGradient id="k" y2="163.03" xlink:href="#j" gradientUnits="userSpaceOnUse" x2="309.44" y1="163.03" x1="251.22"/>
<linearGradient id="l" y2="152.33" xlink:href="#j" gradientUnits="userSpaceOnUse" x2="274.36" y1="152.33" x1="224.57"/>
<radialGradient id="n" xlink:href="#i" gradientUnits="userSpaceOnUse" cy="278.5" cx="349.5" gradientTransform="matrix(1 0 0 .86765 0 36.86)" r="34"/>
<radialGradient id="o" fx="307.71" fy="381.44" xlink:href="#i" gradientUnits="userSpaceOnUse" cy="403.5" cx="307.12" gradientTransform="matrix(.71915 .24546 -2.0278 5.9412 727.44 -2086.7)" r="31.113"/>
<radialGradient id="p" gradientUnits="userSpaceOnUse" cy="267.5" cx="239.79" gradientTransform="matrix(.84121 .5407 -.79252 1.233 253.22 -192.67)" r="8.3594">
<stop stop-color="#7b8081" offset="0"/>
<stop stop-color="#646464" offset="1"/>
</radialGradient>
<linearGradient id="m" x1="310.38" gradientUnits="userSpaceOnUse" x2="348.9" gradientTransform="matrix(.86533 0 0 .86533 -130.76 17.293)" y1="260.28" y2="227">
<stop stop-color="#4d4d4d" offset="0"/>
<stop stop-color="#6f6f6f" offset=".23214"/>
<stop stop-color="#fff" offset=".44523"/>
<stop stop-color="#b1b1b1" offset=".57402"/>
<stop stop-color="#4d4d4d" offset="1"/>
</linearGradient>
</defs>
<g>
<path d="m295.58 233.96h-19.04v19.897h19.04v-6.8834l4.5976 0.96108v3.2469q0 3.7924-1.3247 5.1431t-5.0652 1.3507h-15.377q-3.7404 0-5.0911-1.3507-1.3507-1.3767-1.3507-5.1431v-14.468q0-3.7664 1.3507-5.1171 1.3507-1.3767 5.0911-1.3767h15.377q3.7404 0 5.0652 1.3507 1.3247 1.3507 1.3247 5.1431v2.5975l-4.5976 0.85718v-6.208z"/>
<path d="m312.15 254.27h18.832v-15.793h-18.832v15.793zm-4.2599-13.793q0-3.091 1.1689-4.208 1.1689-1.1429 4.3638-1.1429h16.286q3.1949 0 4.3638 1.1429 1.1689 1.1169 1.1689 4.208v11.871q0 3.091-1.1689 4.208-1.1429 1.1169-4.3638 1.1169h-16.286q-3.2469 0-4.3898-1.091-1.1429-1.1169-1.1429-4.2339v-11.871z"/>
<path d="m346.62 239.31q0 0.49352 0.052 1.3507 0.0519 1.4027 0.0519 1.7923v15.221h-3.5066v-22.546h3.5066l11.221 14.624 10.312-14.624h3.9482v22.546h-3.9482v-15.221q0-0.8312 0.052-1.6104 0.0779-0.77926 0.2078-1.5066-0.36366 1.065-0.75328 1.8962-0.38963 0.80523-0.7273 1.2208l-8.6757 11.663h-1.1169l-8.9874-11.559q-0.46755-0.59742-0.88315-1.4026-0.4156-0.80523-0.75328-1.8442z"/>
<path d="m397.92 238.43h-12.858v7.1172h12.858q1.4286 0 1.9741-0.46755 0.57145-0.49353 0.57145-1.6624v-2.8573q0-1.1689-0.54547-1.6364-0.54548-0.49353-2.0001-0.49353zm-17.118 19.248v-22.546h19.04q2.6235 0 3.7664 1.013 1.1689 1.013 1.1689 3.3508v5.0392q0 2.2858-1.1689 3.2988-1.1429 1.013-3.7664 1.013h-14.78v8.8315h-4.2599z"/>
<path d="m411.12 257.67v-22.546h22.702v3.3508h-18.442v5.7924h11.117v3.3508h-11.117v6.7535h18.65v3.2988h-22.91z"/>
<path d="m451.01 238.48v19.196h-4.2339v-19.196h-10.65v-3.3508h25.585v3.3508h-10.702z"/>
<path d="m470.37 257.67h-4.2339v-22.494h4.2339v22.494z"/>
<path d="m489.61 238.48v19.196h-4.2339v-19.196h-10.65v-3.3508h25.585v3.3508h-10.702z"/>
<path d="m508.97 257.67h-4.234v-22.494h4.234v22.494z"/>
<path d="m526.32 257.67-12.988-22.546h4.5716l10.104 18.131 9.6887-18.131h4.208l-12.338 22.546h-3.2469z"/>
<path d="m546.45 257.67v-22.546h22.702v3.3508h-18.442v5.7924h11.117v3.3508h-11.117v6.7535h18.65v3.2988h-22.91z"/>
<path d="m615.8 233.78h-15.741v9.6368h15.741q1.7144 0 2.3378-0.6234t0.6234-2.1819v-4.0002q0-1.5585-0.64938-2.1819-0.6234-0.64938-2.3118-0.64938zm-20.338 23.897v-27.456h22.131q3.091 0 4.4417 1.2728 1.3767 1.2468 1.3767 4.0521v6.1301q0 2.7793-1.3767 4.0521-1.3507 1.2468-4.4417 1.2468h-4.0261l12.546 10.702h-6.8055l-11.169-10.702h-8.0783v10.702h-4.5976z"/>
<path d="m635.91 254.27h18.832v-15.793h-18.832v15.793zm-4.2599-13.793q0-3.091 1.1689-4.208 1.1689-1.1429 4.3638-1.1429h16.286q3.1949 0 4.3638 1.1429 1.1689 1.1169 1.1689 4.208v11.871q0 3.091-1.1689 4.208-1.1429 1.1169-4.3638 1.1169h-16.286q-3.2469 0-4.3898-1.091-1.1429-1.1169-1.1429-4.2339v-11.871z"/>
<path d="m671.23 247.52v6.8574h13.065q1.4546 0 2.0001-0.54547 0.57145-0.57146 0.57145-2.0001v-1.7663q0-1.4027-0.57145-1.9741-0.57145-0.57145-2.0001-0.57145h-13.065zm15.481-5.1171v-2.13q0-1.039-0.5195-1.4286-0.5195-0.41561-1.8962-0.41561h-13.065v5.7924h13.065q1.4806 0 1.9481-0.38963 0.46755-0.38962 0.46755-1.4286zm-19.741 15.273v-22.546h19.04q2.5975 0 3.7664 1.065 1.1689 1.039 1.1689 3.3508v2.5975q0 1.7923-0.9351 2.7274-0.93511 0.90913-2.9871 1.1429 2.0001 0.2078 3.0391 1.3507 1.039 1.1169 1.039 3.0131v2.8832q0 2.2339-1.6105 3.3248-1.6104 1.091-4.9093 1.091h-17.611z"/>
<path d="m702.46 254.27h18.832v-15.793h-18.832v15.793zm-4.2599-13.793q0-3.091 1.1689-4.208 1.1689-1.1429 4.3638-1.1429h16.286q3.1949 0 4.3638 1.1429 1.1689 1.1169 1.1689 4.208v11.871q0 3.091-1.1689 4.208-1.1429 1.1169-4.3638 1.1169h-16.286q-3.2469 0-4.3898-1.091-1.1429-1.1169-1.1429-4.2339v-11.871z"/>
<path d="m744.35 238.48v19.196h-4.2339v-19.196h-10.65v-3.3508h25.585v3.3508h-10.702z"/>
<path d="m763.71 257.67h-4.2339v-22.494h4.2339v22.494z"/>
<path d="m791.58 238.48h-15.741v15.793h15.741v-5.3768l4.2599 0.80523v2.6495q0 3.091-1.1689 4.208-1.1429 1.1169-4.3638 1.1169h-13.247q-3.2209 0-4.3638-1.065-1.1169-1.091-1.1169-4.2599v-11.871q0-3.143 1.1429-4.2339 1.1429-1.1169 4.3378-1.1169h13.247q3.2209 0 4.3638 1.1429 1.1689 1.1169 1.1689 4.208v2.13l-4.2599 0.70133v-4.8314z"/>
<path d="m822.96 238.48h-15.819v5.8444h14.468q3.169 0 4.3119 1.1169 1.1689 1.091 1.1689 4.208v2.7014q0 3.117-1.1429 4.2339-1.1169 1.091-4.3378 1.091h-13.715q-3.2209 0-4.3898-1.091-1.1429-1.1169-1.1429-4.2339v-0.62341l3.8963-0.80522v3.3508h17.014v-6.3379h-14.52q-3.1949 0-4.3378-1.091-1.1429-1.1169-1.1429-4.234v-2.13q0-3.091 1.1429-4.208 1.1429-1.1429 4.3378-1.1429h12.546q3.143 0 4.3378 1.091t1.1948 3.8443v0.54548l-3.8703 0.8312v-2.9612z"/>
<path d="m849.4 257.67 13.04-22.546h3.8963l13.351 22.546h-4.6236l-2.9352-5.2729h-15.585l-2.8832 5.2729h-4.2599zm8.9354-8.5198h11.975l-6.0002-10.728-5.9743 10.728z"/>
<path d="m892.47 238.48v19.196h-4.2339v-19.196h-10.65v-3.3508h25.585v3.3508h-10.702z"/>
<path d="m953.35 233.96h-21.507v19.897h21.507v-8.0523h-11.117v-3.5066h15.689v8.8835q0 3.7664-1.3507 5.1431-1.3507 1.3507-5.0911 1.3507h-17.767q-3.7664 0-5.1171-1.3767-1.3247-1.3767-1.3247-5.1171v-14.468q0-3.7404 1.3247-5.1171 1.3507-1.3767 5.1171-1.3767h17.767q3.6885 0 5.0651 1.3507 1.3767 1.3247 1.3767 4.8314v0.67535l-4.5716 0.90913v-4.0261z"/>
<path d="m967.27 257.67v-22.546h22.702v3.3508h-18.442v5.7924h11.117v3.3508h-11.117v6.7535h18.65v3.2988h-22.91z"/>
<path d="m1000.1 254.27h18.832v-15.793h-18.832v15.793zm-4.2599-13.793q0-3.091 1.1689-4.208 1.1689-1.1429 4.3639-1.1429h16.286q3.195 0 4.3639 1.1429 1.1688 1.1169 1.1688 4.208v11.871q0 3.091-1.1688 4.208-1.1429 1.1169-4.3639 1.1169h-16.286q-3.2469 0-4.3898-1.091-1.1429-1.1169-1.1429-4.2339v-11.871z"/>
<path d="m1047.4 238.43h-12v7.273h12q1.4286 0 1.9222-0.46755 0.4935-0.46755 0.4935-1.8183v-2.7014q0-1.2468-0.5195-1.7663-0.5195-0.51951-1.8962-0.51951zm-16.26 19.248v-22.546h18.131q2.5196 0 3.6105 1.039 1.117 1.013 1.117 3.3248v5.0392q0 2.2858-1.117 3.2988-1.0909 1.013-3.6105 1.013h-2.9871l9.9484 8.8315h-5.6885l-8.9874-8.8315h-6.1561v8.8315h-4.2599z"/>
<path d="m1083.4 238.48h-17.819v15.793h17.819v-6.1301h-9.1952v-3.0651h13.455v7.273q0 3.091-1.1689 4.208-1.1429 1.1169-4.3638 1.1169h-15.273q-3.2209 0-4.3898-1.091-1.1429-1.1169-1.1429-4.2339v-11.871q0-3.091 1.1689-4.208 1.1689-1.1429 4.3638-1.1429h15.273q3.143 0 4.3378 1.1169 1.1949 1.1169 1.1949 3.9222v0.64937l-4.2599 0.72731v-3.0651z"/>
<path d="m1099.3 257.67h-4.2339v-22.494h4.2339v22.494z"/>
<path d="m1104 257.67 13.04-22.546h3.8963l13.351 22.546h-4.6236l-2.9352-5.2729h-15.585l-2.8833 5.2729h-4.2599zm8.9354-8.5198h11.975l-6.0003-10.728-5.9743 10.728z"/>
<path d="m1169.8 233.96v23.715h-4.5716v-23.715h-12.546v-3.7404h29.716v3.7404h-12.598z"/>
<path d="m1185.4 257.67v-22.546h22.702v3.3508h-18.442v5.7924h11.117v3.3508h-11.117v6.7535h18.65v3.2988h-22.91z"/>
<path d="m1234 238.48h-15.741v15.793h15.741v-5.3768l4.26 0.80523v2.6495q0 3.091-1.1689 4.208-1.1429 1.1169-4.3638 1.1169h-13.247q-3.2209 0-4.3639-1.065-1.1169-1.091-1.1169-4.2599v-11.871q0-3.143 1.1429-4.2339 1.1429-1.1169 4.3379-1.1169h13.247q3.2209 0 4.3638 1.1429 1.1689 1.1169 1.1689 4.208v2.13l-4.26 0.70133v-4.8314z"/>
<path d="m1245.5 257.67v-22.494h4.26v9.0393h17.975v-9.0393h4.2599v22.494h-4.2599v-10.052h-17.975v10.052h-4.26z"/>
<g transform="matrix(1.2935 0 0 1 469.26 -827.21)">
<path d="m-103.64 983.69h-34.006v18.079h34.006q3.9356 0 5.35-1.1069 1.4759-1.1684 1.4759-4.0586v-7.8098q0-2.8287-1.4759-3.9356-1.4144-1.1684-5.35-1.1684zm-48.888 53.746v-64.999h55.591q7.7483 0 11.192 3.0132 3.5052 2.9517 3.5052 9.5931v15.25q0 6.5799-3.5052 9.5931-3.4437 3.0132-11.192 3.0132h-8.4862l30.009 24.536h-21.707l-26.197-24.536h-14.328v24.536h-14.882z"/>
<path d="m-61.482 1027.2h42.923v-33.268h-42.923v33.268zm-12.975-30.501q0-7.2563 2.8287-9.9006 2.8287-2.6442 11.007-2.6442h41.201q8.2402 0 11.007 2.6442 2.8287 2.6442 2.8287 9.9006v28.103q0 7.3178-2.8902 9.9621-2.8287 2.6442-10.946 2.6442h-41.201q-8.1787 0-11.007-2.6442-2.8287-2.6443-2.8287-9.9621v-28.103z"/>
<path d="m1.8611 1037.4v-53.254h47.842q6.7029 0 9.6546 2.4598 2.9517 2.3983 2.9517 7.8712v6.3954q0 3.6281-2.3368 5.9649t-6.7644 3.1362q4.4891 0.7379 6.9488 3.4437 2.5213 2.6442 2.5213 6.7029v6.8258q0 5.227-4.1201 7.8713-4.1201 2.5827-12.422 2.5827h-44.276zm41.878-44.583h-29.087v12.606h29.087q3.3822 0 4.6121-0.861 1.2299-0.8609 1.2299-2.9517v-5.0425q0-2.0908-1.2299-2.8902-1.1684-0.86092-4.6121-0.86092zm0 21.4h-29.087v13.59h29.087q3.6896 0 4.981-1.0454 1.3529-1.0454 1.3529-3.6896v-4.0586q0-2.6443-1.3529-3.6897-1.2914-1.1069-4.981-1.1069z"/>
<path d="m81.439 1027.2h42.923v-33.268h-42.923v33.268zm-12.975-30.48q0-7.2563 2.8287-9.9006 2.8287-2.6442 11.007-2.6442h41.201q8.2402 0 11.007 2.6442 2.8287 2.6442 2.8287 9.9006v28.103q0 7.3178-2.8902 9.9621-2.8287 2.6442-10.946 2.6442h-41.201q-8.1787 0-11.007-2.6442-2.8287-2.6443-2.8287-9.9621v-28.103z"/>
<path d="m158.99 1037.4q-9.4701 0-12.791-3.1977-3.3207-3.2592-3.3207-12.176v-13.467l15.251-2.8903v19.494h29.702v-52.762h15.128v49.626q0 8.9166-3.3822 12.176-3.3207 3.1977-12.729 3.1977h-27.857z"/>
<path d="m204.79 1037.4 31.608-53.254h12.483l32.1 53.254h-14.574l-6.7029-11.684h-35.236l-6.7029 11.684h-12.975zm25.213-21.4h24.413l-12.422-22.199-11.991 22.199z"/>
<path d="m331 993.96h-34.99v33.268h34.99v-11.315l13.098 2.6442v6.2724q0 7.2563-2.8902 9.9621-2.8902 2.6442-11.069 2.6442h-33.268q-8.0557 0-10.946-2.6442-2.8902-2.6443-2.8902-9.9621v-28.103q0-7.2563 2.8287-9.9006 2.8902-2.6442 11.007-2.6442h33.268q8.2402 0 11.069 2.6442 2.8902 2.6442 2.8902 9.9006v5.1655l-13.098 1.9063v-9.839z"/>
<path d="m352.5 1037.4v-53.254h13.098v21.523l31.055-21.523h18.817l-36.835 24.659 40.955 28.595h-20.539l-33.453-24.044v24.044h-13.098z"/>
<path d="m425.72 1037.4v-53.254h57.128v9.4086h-44.03v11.622h25.643v9.1626h-25.643v13.098h44.706v9.962h-57.804z"/>
<path d="m528.95 993.71v43.722h-12.975v-43.722h-25.705v-9.5316h64.446v9.5316h-25.766z"/>
<path d="m608.7 993.71h-36.651v11.253h34.683q8.1787 0 11.007 2.6442 2.8287 2.5828 2.8287 9.9006v7.3178q0 7.3178-2.8902 9.9621-2.8902 2.6442-10.946 2.6442h-34.56q-8.2402 0-11.192-2.6442-2.8902-2.6443-2.8902-9.9621v-1.4759l11.561-2.1522v6.2724h39.172v-12.176h-34.498q-8.1787 0-11.069-2.6442-2.8902-2.7058-2.8902-9.9621v-5.9649q0-7.1948 2.8902-9.8391 2.8902-2.7057 11.069-2.7057h31.608q8.0557 0 11.007 2.5828 3.0132 2.5213 3.0132 8.9782v1.2914l-11.253 2.3983v-5.719z"/>
</g>
</g>
<path fill="#727473" d="m65.866 76.41c-13.26-30.97-33.741-52.192-54.117-76.41l0.15316 1.7591c20.121 23.798 39.654 45.404 52.431 75.415l1.529-0.76496z" fill-rule="evenodd"/>
<g transform="translate(-50.015 -50)">
<g fill-rule="evenodd">
<rect y="355.91" width="5.9492" x="124.78" height="4.6512"/>
<path d="m118.56 302.31 9.9513 5.9448 48.89 18.821 11.898 0.21633-43.587-21.417-23.475-4.543-3.6777 0.97783z" fill="#7d450c"/>
<path d="m182.53 323.89-52.778 62.114-1.0704-80.77c20.274 3.5565 32.89 7.9178 53.849 18.657z" fill="url(#o)"/>
<path d="m127.91 317.51 66.311-3.5652-7.3034 5.4083-60.835 3.5652-0.54775-5.2958 2.3745-0.11249z"/>
<path d="m201.31 291.28 2.9162 3.5652-6.0573 16.554-3.5652 1.1855 6.7063-21.305z"/>
<path d="m123.88 302.55-5.192-0.21634 18.282-49.437 4.2142-3.3488-17.304 53.002z" fill="#3a0c00"/>
<g transform="matrix(.86533 0 0 .86533 -128.45 25.001)">
<path d="m356 106.19c-10.45 0-19.23 8.45-21.69 19.87l-0.06-0.12-0.09 0.94c-0.35 1.83-0.54 3.73-0.54 5.68v0.32l-6.87 77.43s22.77-5.28 33.66-7.5c12.38-0.3 22.34-11.28 22.34-24.75l-0.34-4.22c-1.44-8.97-7.03-15.99-14.47-18.96 6.27-4.68 10.44-12.93 10.44-22.32l-0.32-4.5c-1.87-12.78-11.06-21.87-22.06-21.87z" fill="#6a6a68"/>
<path d="m365.88 108.75c-10.46 0-19.24 8.45-21.69 19.87-0.02-0.04-0.04-0.08-0.07-0.12l-0.09 0.94c-0.34 1.83-0.53 3.73-0.53 5.68v0.32l-6.88 77.44s22.77-5.29 33.66-7.5c12.38-0.31 22.35-11.28 22.34-24.76l-0.34-4.21c-1.43-8.97-7.03-15.99-14.47-18.97 6.27-4.68 10.44-12.93 10.44-22.32l-0.31-4.5c-1.88-12.78-11.06-21.87-22.06-21.87z" fill="#727473"/>
</g>
</g>
<rect height="5.0863" width="9.1397" y="163.33" x="177.49" fill="#ccc"/>
<rect height="5.0863" width="9.1397" y="165.01" x="175.7" fill="#b3b3b3"/>
<rect height="5.0863" width="9.1397" y="168.38" x="174.51" fill="#999"/>
<path fill="#999" d="m242.03 202.43 0.91725 4.8978-13.24 20.578-0.48459-24.247 4.093-2.7518 8.7139 1.523z" fill-rule="evenodd"/>
<g fill="#898c93" transform="matrix(.86533 0 0 .86533 -130.76 17.293)" fill-rule="evenodd">
<path d="m416.59 248.75-17.47 0.32-1.99 7.01 5.23 14.54 1.57-6.59 1.47 2.3-5.23 19.36-1.68-2.72 1.47-5.23-8.58-23.23 3.87-18.01c-0.33-5.41 2.39-7.36 6.8-6.59l15.7-5.12 4.91 1.15-3.14 7.01-16.74 2.83v4.18l14.86 3.46-1.05 5.33z"/>
<path d="m414.35 248.16 15.3 8.46-1.53 7.12-11.43 10.41 1.7-6.56-2.37 1.35-4.44 19.55 2.76-1.62 1.15-5.31 18.45-16.51 5.01-17.73c2.82-4.63 1.33-7.62-2.92-9.01l-11.48-11.86-4.89-1.29-0.5 7.67 13.47 10.33-1.96 3.7-14.75-3.9-1.57 5.2z"/>
</g>
<path d="m246.53 197.72a5.6247 5.192 0 0 1 -11.249 0 5.6247 5.192 0 1 1 11.249 0z" fill="#b3b3b3"/>
<rect transform="rotate(-4.1165)" height="8.6533" width="43.267" y="175.08" x="183.98" fill="#76726f"/>
<g transform="matrix(.86533 0 0 .86533 -130.87 18.436)" fill-rule="evenodd">
<path d="m276.24 228.98 10.07-15.2 27.38 28.77-15.27 4.09-22.18-17.66z" fill="#76726f"/>
<path d="m277.19 228.62 9.45-16 22 17.56-5.64 20.31-4.78-5.08-21.03-16.79z" fill="#b3b3b3"/>
<path d="m298.12 246.37 0.08-1 6.09 6.4-0.63 0.45-5.54-5.85z" fill="#76726f"/>
</g>
<g transform="matrix(.86533 0 0 .86533 49.991 50)" fill-rule="evenodd">
<path transform="matrix(1.6061 0 0 .92508 -348.22 -18.178)" d="m236.44 278.74a3.715 7.43 0 1 1 -7.43 0 3.715 7.43 0 1 1 7.43 0z" fill="#0f0f0f"/>
<path d="m38.34 239.09c0 4.09-4.032 6.99-8.972 7.33-6.403 1-8.338-1.62-8.971-7.51 0-4.1 4.019-7.39 8.971-7.34s8.972 3.42 8.972 7.52z" fill="#4d4d4d"/>
<path transform="matrix(1.4994 0 0 .99711 -316 -39.842)" d="m236.44 278.74a3.715 7.43 0 1 1 -7.43 0 3.715 7.43 0 1 1 7.43 0z" fill="#0f0f0f"/>
<path d="m16.647 231.75c-1.867 4.25-0.611 6.64 2.294 9.09 4.254 0.7 8.289 0.99 12.324 0.49 4.671-0.44 2.927-6.87 2.391-10-5.527 0.77-11.342 1.15-17.009 0.42z" fill="#808080"/>
<path d="m39.513 202.27-7.447 30.91c-4.5-0.25-9.261 0.47-13.465-0.82l5.945-26.05 14.967-4.04z" fill="#b3b3b3"/>
<path transform="matrix(1.0662,0,0,1.2966,-229.09,-109.62)" d="m383.5 278.5a34 29.5 0 1 1 -68 0 34 29.5 0 1 1 68 0z" fill="url(#n)"/>
</g>
<path d="m171.98 212.52a17.455 23.623 59.379 1 1 -38.04 27.72 17.455 23.623 59.379 0 1 38.04 -27.72z" fill="#ccc"/>
<path d="m165.87 214.64a14.169 19.175 59.377 0 1 -30.88 22.5 14.169 19.175 59.377 1 1 30.88 -22.5z" fill="#808080"/>
<path d="m144.42 206.36 2.2326-1.7566 11.18 14.114c-0.14715 1.0903-0.87399 1.6874-2.2326 1.7566l-11.18-14.11z" fill="#76726f"/>
<g transform="matrix(.86533 0 0 .86533 -256.35 -36.141)" fill-rule="evenodd">
<path d="m398.64 199.52c0.87983 1.0362 0.99085-0.47729 1.5725 0.75137s-0.65939 0.35519-0.41556 1.6925 1.0968 0.0821 0.98615 1.437c-0.1106 1.3549-0.74864-0.0221-1.2062 1.258-0.4575 1.2801 0.90878 0.61946 0.13556 1.7375s-0.63731-0.39345-1.6736 0.48638c-1.0362 0.87984 0.47729 0.99086-0.75137 1.5725-1.2287 0.58166-0.3552-0.65939-1.6925-0.41555-1.3373 0.24383-0.0821 1.0968-1.437 0.98615-1.3549-0.11061 0.0221-0.74865-1.258-1.2062-1.2801-0.4575-0.61947 0.90877-1.7375 0.13555-1.1181-0.77322 0.39345-0.6373-0.48638-1.6736-0.87984-1.0362-0.99086 0.47729-1.5725-0.75137-0.58166-1.2286 0.65939-0.35519 0.41555-1.6925-0.24383-1.3373-1.0968-0.0821-0.98615-1.437 0.1106-1.3549 0.74865 0.0221 1.2062-1.258 0.4575-1.2801-0.90878-0.61946-0.13555-1.7375 0.77322-1.118 0.6373 0.39346 1.6736-0.48638 1.0362-0.87983-0.47729-0.99086 0.75136-1.5725 1.2287-0.58165 0.3552 0.65939 1.6925 0.41556 1.3373-0.24384 0.0821-1.0968 1.437-0.98615 1.3549 0.1106-0.0221 0.74864 1.258 1.2061 1.2801 0.4575 0.61946-0.90877 1.7375-0.13555 1.1181 0.77322-0.39345 0.6373 0.48639 1.6736z" transform="matrix(1.4906 0 -.39607 1.4782 -42.9 -19.72)"/>
<path transform="matrix(.47123 0 -.12521 .4673 314.55 180.8)" d="m381.4 212.32a6.2314 6.2314 0 0 1 -6.2314 6.2314 6.2314 6.2314 0 0 1 -6.2314 -6.2314 6.2314 6.2314 0 0 1 6.2314 -6.2314 6.2314 6.2314 0 0 1 6.2314 6.2314z" fill="#b4b4b4"/>
</g>
<path d="m133.68 193 2.2308-1.7566 11.177 14.114c-0.13845 1.0903-0.86533 1.6874-2.2326 1.7566l-11.18-14.11z" fill="#76726f"/>
<g transform="matrix(.86533 0 0 .86533 -131.52 17.293)" fill-rule="evenodd">
<path d="m294.85 329.65 20.25-61.22 28.36 7.72-21.29 62.13-27.32-8.63z" fill="#dea82a"/>
<path d="m355.54 352.04 21.65-63.66-34.13-12.34-20.94 62.32 33.42 13.68z" fill="#ffffac"/>
<path d="m370.93 358.97-15.39-6.93 21.65-63.66 13.03 10.08-19.29 60.51z" fill="#dea82a"/>
</g>
<path d="m135.11 267.28 23.799 6.6025-5.4083 16.848-23.799-6.6025 5.4083-16.848z" fill="#474747"/>
<path fill="#9d9d9d" d="m129.7 284.46-5.5165-0.53651 5.6247-16.485 5.1029-0.20769-5.211 17.229z" fill-rule="evenodd"/>
<g transform="matrix(.86533 0 0 .86533 49.991 50)" fill-rule="evenodd">
<path d="m87.492 353.83 45.378-4.13-5 6.25-41.628 4.13-0.375-6.13 1.625-0.12z"/>
<path d="m87.718 338.02 58.652-4.13-6.47 6.25-53.798 4.13-0.485-6.13 2.101-0.12z"/>
<path d="m87.551 323.27 67.939-4.13-7.48 6.25-62.331 4.13-0.562-6.13 2.434-0.12z"/>
<path d="m87.401 368.52 32.339-4.13-3.56 6.25-29.67 4.13-0.268-6.13 1.159-0.12z"/>
</g>
<rect transform="rotate(13.728)" height="22.931" width="16.874" y="108.47" x="270.85" fill="#b3b3b3"/>
<rect transform="matrix(.9587 .28442 -.2699 .96289 0 0)" height="6.6996" width="22.439" y="131.41" x="270.99" fill="#808080"/>
<g transform="matrix(.86533 0 0 .86533 -91.292 10.792)" fill-rule="evenodd">
<path transform="matrix(2.1178,0,0,2.1178,-462.94,-215.01)" d="m398.64 199.52c1.0087 1.188 1.1103-0.39587 1.7025 1.0457 0.59219 1.4415-0.59352 0.38654-0.47577 1.9405s1.131 0.33236 0.76274 1.8467c-0.36823 1.5143-0.70738-0.0361-1.5255 1.2903-0.81815 1.3264 0.7196 0.93365-0.46838 1.9423-1.188 1.0087-0.55103-0.44503-1.9926 0.14717-1.4415 0.59219 0.0334 1.1783-1.5206 1.2961-1.554 0.11774-0.18421-0.68392-1.6985-1.0522-1.5143-0.36822-0.66559 0.9729-1.992 0.15476-1.3264-0.81815 0.25296-0.66158-0.7557-1.8496s-1.1103 0.39587-1.7025-1.0457c-0.59219-1.4415 0.59352-0.38654 0.47577-1.9405-0.11774-1.554-1.131-0.33237-0.76273-1.8467 0.36822-1.5143 0.70737 0.0361 1.5255-1.2903 0.81815-1.3264-0.7196-0.93365 0.46839-1.9423 1.188-1.0087 0.55102 0.44503 1.9926-0.14716 1.4415-0.59219-0.0334-1.1783 1.5206-1.2961 1.554-0.11775 0.18422 0.68392 1.6985 1.0521 1.5143 0.36822 0.66558-0.9729 1.992-0.15475 1.3264 0.81814-0.25297 0.66158 0.7557 1.8496z" fill="#9c9ca4"/>
<path transform="translate(-2.2981,2.3865)" d="m381.4 212.32a6.2314 6.2314 0 0 1 -6.2314 6.2314 6.2314 6.2314 0 0 1 -6.2314 -6.2314 6.2314 6.2314 0 0 1 6.2314 -6.2314 6.2314 6.2314 0 0 1 6.2314 6.2314z" fill="#737572"/>
</g>
<rect transform="matrix(.99523 -.09756 .079011 .99687 0 0)" height="10.538" width="28.281" y="188.74" x="185.61" fill="#b3b3b3"/>
<path d="m231.82 173.17a3.3532 4.6512 0 0 1 -6.7063 0 3.3532 4.6512 0 1 1 6.7063 0z" fill="#999"/>
<g transform="matrix(.86533 0 0 .86533 49.991 50)" fill-rule="evenodd">
<g transform="matrix(1.0645,0,0,1.0645,-259.54,-90.444)">
<path transform="matrix(2.1773,0,0,2.1773,-363.15,-249.12)" d="m381.4 212.32a6.2314 6.2314 0 0 1 -6.2314 6.2314 6.2314 6.2314 0 0 1 -6.2314 -6.2314 6.2314 6.2314 0 0 1 6.2314 -6.2314 6.2314 6.2314 0 0 1 6.2314 6.2314z" fill="#9c9ca4"/>
<path transform="translate(78.268 .92808)" d="m381.4 212.32a6.2314 6.2314 0 0 1 -6.2314 6.2314 6.2314 6.2314 0 0 1 -6.2314 -6.2314 6.2314 6.2314 0 0 1 6.2314 -6.2314 6.2314 6.2314 0 0 1 6.2314 6.2314z" fill="#b4b4b4"/>
</g>
<g transform="translate(-208.88,-37.797)">
<path d="m246.65 272.51c-3.7 4.19-5.08 4.93-8.18 4.08-4.07-1.13-3.68-7.34-0.83-12.14 3.13-5.26 6.82-8.21 10.51-7.94 6.42 1.2 3.65 7.43 1.6 11.53-0.73 1.72-1.89 3.09-3.1 4.47z" fill="url(#p)"/>
<path d="m240.24 265.55c1.56-2.62 3.43-3.99 5.27-3.58 1.88 0.79 1.61 2.83 0.8 4.62-0.85 1.78-1.91 3.32-3.49 3.74-2.94 0.68-3.47-2.54-2.58-4.78z"/>
</g>
<path transform="matrix(2.1178,0,0,2.1178,-790.02,-193.58)" d="m398.64 199.52c1.21 1.43 1.29-0.28 1.86 1.5 0.58 1.78-0.49 0.45-0.64 2.31s1.11 0.72 0.26 2.38-0.66-0.03-2.09 1.17c-1.42 1.21 0.28 1.3-1.49 1.87-1.78 0.57-0.45-0.49-2.31-0.64s-0.72 1.11-2.38 0.26 0.03-0.66-1.18-2.09c-1.21-1.42-1.29 0.28-1.87-1.5-0.57-1.77 0.5-0.44 0.65-2.3s-1.12-0.72-0.26-2.38c0.85-1.67 0.66 0.03 2.08-1.18 1.43-1.21-0.28-1.3 1.5-1.87s0.45 0.49 2.31 0.65c1.86 0.15 0.72-1.12 2.38-0.26 1.66 0.85-0.03 0.66 1.18 2.08z" fill="#9c9ca4"/>
</g>
<path d="m92.384 254.13a4.1644 4.1644 0 1 1 -8.3245 0 4.1644 4.1644 0 1 1 8.3245 0z"/>
<g transform="matrix(.86533 0 0 .86533 -21.292 53.097)" fill-rule="evenodd">
<g transform="translate(-.1875 2.0625)">
<g fill="#b3b3b3">
<path d="m146.92 235.85h11.31l-4.68 1.23h-11.32l4.69-1.23z"/>
<path d="m146.83 232.31 11.36 0.04-4.64 1.18h-11.32l4.6-1.22z"/>
<path d="m146.83 235.9h11.32v-3.62h-11.32v3.62z"/>
<path d="m130.02 251.95 14.55-4.56v-38.03l-17.44 24.13 2.89 18.46z"/>
<path d="m139.23 252.16 5.04 0.04 10.72-15.64h0.45l-5.48-0.04-10.73 15.64z"/>
</g>
<g fill="#ccc">
<path d="m127.5 252.17h9.55l-2.83-18.65h-9.54l2.82 18.65z"/>
<path d="m133.68 252.17v-7.25h5.5l6-8.84h5.57l-11.5 16.09h-5.57z"/>
<path d="m142.18 237.13h11.31v-3.62h-11.31v3.62z"/>
</g>
</g>
<g transform="translate(-61.5,-45.75)">
<path d="m207.76 270.61h11.31l-4.64 3.18h-11.31l4.64-3.18z" fill="#8d8a8a"/>
<path d="m207.73 270.63h11.32v3.62h-11.32v-3.62z" fill="#b3b3b3"/>
<g fill="#b3b3b3">
<path d="m191.09 256.94 9.54 0.06-2.89 20.78-9.54 3.09 2.89-23.93z"/>
<path d="m192.41 275.57h5.42l-2.64 1.8h-5.43l2.65-1.8z"/>
</g>
<path d="m193.08 255.58h12.14l-4.64 3.18h-12.14l4.64-3.18z" fill="#8d8a8a"/>
<path d="m200.17 258.76 5.04-3.18 10.72 15.02-5.03 3.18-10.73-15.02z" fill="#ccc"/>
<path d="m188.44 258.75h9.55l-2.83 18.65h-9.54l2.82-18.65z" fill="#2f3437"/>
<path d="m194.62 258.75v7.25h5.5l6 8.84h5.57l-11.5-16.09h-5.57z" fill="#2f3437"/>
<path d="m207.76 274.23h11.31l-4.64 3.18h-11.31l4.64-3.18z" fill="#b3b3b3"/>
<path d="m203.12 273.79h11.31v3.62h-11.31v-3.62z" fill="#2f3437"/>
</g>
<g transform="matrix(.86331 0 0 1 -77.413 -63.492)">
<path transform="translate(-15.203,20.506)" d="m260.3 276.04a6.143 6.143 0 0 1 -6.143 6.143 6.143 6.143 0 0 1 -6.143 -6.143 6.143 6.143 0 0 1 6.143 -6.143 6.143 6.143 0 0 1 6.143 6.143z" fill="#333"/>
<path transform="matrix(.79137 0 0 .79137 37.824 78.098)" d="m260.3 276.04a6.143 6.143 0 0 1 -6.143 6.143 6.143 6.143 0 0 1 -6.143 -6.143 6.143 6.143 0 0 1 6.143 -6.143 6.143 6.143 0 0 1 6.143 6.143z" fill="#808080"/>
<path transform="matrix(.66906 0 0 .66906 68.908 111.86)" d="m260.3 276.04a6.143 6.143 0 0 1 -6.143 6.143 6.143 6.143 0 0 1 -6.143 -6.143 6.143 6.143 0 0 1 6.143 -6.143 6.143 6.143 0 0 1 6.143 6.143z" fill="#ccc"/>
</g>
</g>
<g transform="matrix(.86533 0 0 .86533 49.991 50)" fill-rule="evenodd">
<path d="m122.1 197.12 11.1-11.44 12.66 14.94-9.06 12.9-14.7-16.4z" fill="#898c93"/>
<path transform="matrix(1.2072 -.20721 -.090924 1.033 -252.39 29.516)" d="m340.65 224.78a7.0306 6.0546 0 1 1 -14.06 0 7.0306 6.0546 0 1 1 14.06 0z" fill="#76726f"/>
<path d="m86.651 198.92 13.479-10.32 13.82 15.76c-0.04 6.25-6.69 10.69-12.6 10.95l-14.699-16.39z" fill="#898c93"/>
</g>
<path d="m150.09 190.89h2.6998l10.15 21.105h-2.6998l-10.15-21.105z" fill="#808080"/>
<path d="m139.34 191.71 4.1017-3.2277 20.552 25.951c-0.25961 1.9989-1.5922 3.0979-4.1017 3.2277l-20.55-25.95z" fill="#b3b3b3"/>
<path fill="#76726f" d="m138.57 216.79a5.0912 7.6894 67.264 1 1 -14.688 2.521 5.0912 7.6894 67.264 1 1 14.688 -2.521z" fill-rule="evenodd"/>
<path d="m108.94 193.27 4.1017-3.219 20.551 25.943c-0.25873 1.9989-1.5931 3.1066-4.1017 3.2277l-20.551-25.951z" fill="#999"/>
<path fill="url(#m)" d="m133.22 239.41c21.954 14.122 42.704-9.5446 39.97-25.475l3.0806 5.0882c2.1114 21.305-18.657 37.114-38.239 26.064l-4.8112-5.6766z" fill-rule="evenodd"/>
<g transform="matrix(.86533 0 0 .86533 -131.19 17.509)" fill-rule="evenodd">
<path d="m346.67 202.73 5.92-11.53v35.89l-5.92 11.52v-35.88z" fill="#43443f"/>
<rect ry="0" height="35.797" width="2.2097" y="202.73" x="344.52" fill="#76726f"/>
<path d="m346.69 238.31 5.81-11.19 5.69 10.94-5.81 11.25-5.69-11z" fill="#43443f"/>
<path d="m344.44 238.46h2.31l5.66 10.83h-2.3l-5.67-10.83z" fill="#76726f"/>
</g>
<path d="m151.95 190.05 4.7161-0.86532 9.7869 22.127h-4.2834l-10.22-21.261z" fill="#999"/>
<path d="m171.78 183.38h1.947l-4.8632 9.5706h-1.947l4.8632-9.5706z" fill="#b3b3b3"/>
<path d="m149.55 183.93 30.789-9.735 0.64033 7.6063-30.789 9.735-0.64035-7.6063z" fill="#808080"/>
<rect height="5.0863" width="9.1397" y="178.98" x="177.45" fill="#ccc"/>
<path d="m190.82 173.65a4.0155 10.459 0 1 1 -8.0303 0 4.0155 10.459 0 1 1 8.0303 0z" fill="#b3b3b3"/>
<rect height="5.0863" width="9.3309" y="177.67" x="175.46" fill="#b3b3b3"/>
<rect height="5.0863" width="9.1397" y="175.11" x="174.39" fill="#999"/>
<rect height="5.0863" width="9.1397" y="171.99" x="174.03" fill="#808080"/>
<path d="m194.3 312.49 3.8248-0.98648 6.04-16.528-2.7518-3.1498-7.113 20.664z" fill-rule="evenodd"/>
<path d="m160.35 274.92 30.936 11.682-6.2737 16.848-30.936-11.682 6.2737-16.848z" fill="#474747"/>
<path d="m195.9 309.77-3.3575-0.649-13.733-7.7274 3.4613-2.5441 13.629 10.921z" fill-rule="evenodd"/>
<path d="m188.55 284.25 13.196 7.5717-5.6247 18.06-13.196-7.5717 5.6247-18.06z" fill="#2f3437"/>
<path d="m169.82 277.38-1.6009 0.38941-5.7372 16.9 1.8345 0.45863 5.5035-17.748z" fill-rule="evenodd"/>
<path d="m169.73 277.32 11.898 4.8113-5.6247 17.956-12.115-4.5776 5.841-18.189z" fill="#999"/>
<path fill="#2f3437" d="m140.25 288.13-4.061-1.9383 5.6273-17.523 3.6777 1.947-5.2439 17.514z" fill-rule="evenodd"/>
<path d="m145.07 270.83 4.4132-0.29421-0.34614 19.314-9.1812-1.8605 5.1141-17.16z"/>
<path d="m162.79 274.17 0.15576 1.9903-5.5122 16.9-2.2931-1.0644 6.1958-17.134 1.4538-0.69227z" fill-rule="evenodd"/>
<path d="m149.18 270.4 13.629 3.6777-6.2737 18.388-13.629-3.6777 6.2737-18.388z" fill="#2f3437"/>
<path d="m136.09 267.16 7.5699 1.947-5.5122 17.956-7.5743-1.947 5.5165-17.956z"/>
<path d="m183.07 302.36-4.4738-1.0211 6.3775-17.021 3.5825 0.0432-5.4862 17.999z" fill-rule="evenodd"/>
<path d="m135.72 214.34 2.2326-1.7566 11.18 14.114c-0.14715 1.0903-0.86533 1.6874-2.2326 1.7566l-11.18-14.11z" fill="#76726f"/>
<path d="m131.97 225.76-1.9886-3.2104 1.8362-0.22498 0.45863-2.4489-2.8296-1.3067 3.1351-5.0449 1.9894 2.0682 1.5291-0.99514-0.38249-2.7518 7.4228-0.3894v3.8248l1.4538 0.53652 0.52786-3.0546 4.2834 2.0595-1.298 2.4489 1.1509 1.5316 4.8199-0.83937 0.83937 4.5863-4.2055 0.76151 4.2834 2.371-2.2239 4.2834-2.8296-0.76151 0.15576 2.9075-6.04 0.45862-2.2931-3.2104-1.9903 2.9075-3.9797-1.9903 0.8385-2.9854-1.3742-1.298-3.2891-0.23364z" fill="none"/>
<path d="m124.99 200.97 2.2317-1.7566 11.175 14.114c-0.13845 1.0903-0.86534 1.6874-2.2274 1.7566l-11.179-14.114z" fill="#76726f"/>
<g transform="matrix(.86533 0 0 .86533 -130.76 17.293)" fill-rule="evenodd">
<path d="m332.52 154.2c1.24 8.67 2.27 16.15 0.04 24.76-1.41 10.72-20.99 25-46.57 45.84-7.43 6.05-16.78 8.48-23.6 8.41-3.27-0.04-6.06 1.59-8.72 1.78l78.85-80.79z" fill="#e5c524"/>
<path d="m230.7 177.28 43.66-45.92c-17.95-7.35-21.86-5.1-38.09 11.86-7.78 9.31-15.65 13.08-9.48 29.63l3.91 4.43z" fill="url(#l)"/>
<path d="m326.12 174.72c24.44-27.26-16.21-56.99-44.94-46.54-28.43 13.69-72.89 63.22-70.49 96.15 0.96 12.12 2.4 19.11 14.51 20.62 34.78 3.53 78.59-45.98 100.92-70.23z" fill="#f9d02a"/>
<path d="m319.55 171.78c5.77-7.12 7.47-14.24 6.84-21.36-0.04-4.68-1.92-8-4.85-11.45-5.02-5.7-11.74-10.01-21.05-12.21-8.12-2.42-15.08-1.89-22.95 1.42-27.27 12.82-70.36 59.23-68.61 90.09 0.73 11.35 2.67 17.08 14.17 18.49 33.04 3.32 74.83-42.25 96.45-64.98z" fill="#fad94e"/>
<path d="m275.2 139.9c15.23-10.88 34.53-2.87 34.21 16.25 0.32 4.6-1.91 7.88-4.48 11.46-7.65 10.4-19.83 20.34-32.27 22.91-6.34 1.6-12.51-0.55-17.69-4.31-3.34-2.82-4.49-6.88-3.29-13.82 3.95-12.02 12.48-24.34 23.52-32.49z" fill="url(#k)"/>
</g>
<path d="m132.39 230.67-0.37643 7.3207 1.2911 1.6095 2.6367-2.9508-2.2066-6.0314-1.3447 0.0519z" fill="none"/>
<path d="m203.26 169.44 29.032-2.5527 0.60573 1.9903-29.041 2.5527-0.59709-1.9903z" fill="#9c9ca4"/>
<path d="m194.98 159.26 51.487-3.4008 1.0298 1.1336-51.479 3.4094-1.0384-1.1422z" fill="#9c9ca4"/>
<g transform="matrix(.99851 0 0 .9902 -181.45 -4.3585)" fill-rule="evenodd">
<path transform="matrix(2.1178,0,0,2.1178,-460.15,-252)" d="m398.64 199.52c0.87983 1.0362 0.99085-0.47729 1.5725 0.75137s-0.65939 0.35519-0.41556 1.6925 1.0968 0.0821 0.98615 1.437c-0.1106 1.3549-0.74864-0.0221-1.2062 1.258-0.4575 1.2801 0.90878 0.61946 0.13556 1.7375s-0.63731-0.39345-1.6736 0.48638c-1.0362 0.87984 0.47729 0.99086-0.75137 1.5725-1.2287 0.58166-0.3552-0.65939-1.6925-0.41555-1.3373 0.24383-0.0821 1.0968-1.437 0.98615-1.3549-0.11061 0.0221-0.74865-1.258-1.2062-1.2801-0.4575-0.61947 0.90877-1.7375 0.13555-1.1181-0.77322 0.39345-0.6373-0.48638-1.6736-0.87984-1.0362-0.99086 0.47729-1.5725-0.75137-0.58166-1.2286 0.65939-0.35519 0.41555-1.6925-0.24383-1.3373-1.0968-0.0821-0.98615-1.437 0.1106-1.3549 0.74865 0.0221 1.2062-1.258 0.4575-1.2801-0.90878-0.61946-0.13555-1.7375 0.77322-1.118 0.6373 0.39346 1.6736-0.48638 1.0362-0.87983-0.47729-0.99086 0.75136-1.5725 1.2287-0.58165 0.3552 0.65939 1.6925 0.41556 1.3373-0.24384 0.0821-1.0968 1.437-0.98615 1.3549 0.1106-0.0221 0.74864 1.258 1.2061 1.2801 0.4575 0.61946-0.90877 1.7375-0.13555 1.1181 0.77322-0.39345 0.6373 0.48639 1.6736z" fill="#9c9ca4"/>
<path transform="translate(.48614 -34.604)" d="m381.4 212.32a6.2314 6.2314 0 0 1 -6.2314 6.2314 6.2314 6.2314 0 0 1 -6.2314 -6.2314 6.2314 6.2314 0 0 1 6.2314 -6.2314 6.2314 6.2314 0 0 1 6.2314 6.2314z" fill="#b4b4b4"/>
</g>
<path d="m192.28 183.32 51.643-4.1536 1.0298 1.1336-51.643 4.1623-1.0298-1.1422z" fill="#9c9ca4"/>
<path fill="#737572" d="m148 216.5c2.7706 2.4083 2.693-1.2063 4.4309 1.9644 1.7563 3.169-1.4124 0.90757-0.96281 4.3403 0.44964 3.4327 3.0044 1.1372 2.0933 4.3156s-1.774-0.44212-3.905 2.003c-2.1493 2.4467 1.5501 2.8138-1.4716 4.1421-3.04 1.33-1.1047-1.5087-4.5718-1.4854-3.4671 0.0234-0.79796 2.8325-4.1712 1.5409s0.21753-1.699-2.557-4.1257c-2.7706-2.4083-2.6746 1.2047-4.4309-1.9644-1.7341-3.1523 1.4163-0.88924 0.98502-4.3235-0.44964-3.4327-3.0227-1.1356-2.0933-4.3156 0.9072-3.1967 1.7701 0.42381 3.9011-2.0213 2.1493-2.4467-1.5684-2.8121 1.4716-4.1421s1.1047 1.5087 4.5718 1.4854c3.471-0.004 0.79795-2.8325 4.1751-1.5226 3.3732 1.2916-0.21753 1.699 2.5347 4.109z" fill-rule="evenodd"/>
<path fill="#dedee0" d="m147.07 222.31a5.7933 5.1185 40.734 1 1 -10.79 0.94 5.7933 5.1185 40.734 0 1 10.79 -0.94z" fill-rule="evenodd"/>
</g>
<path fill="#727473" d="m75.936 79.1c-11.44-30.671-18.45-51.252-39.277-75.545l0.22672 1.9137c20.328 24.69 25.995 43.012 37.414 73.742 0.72862 1.0566 1.1924 0.52785 1.6381-0.11505z" fill-rule="evenodd"/>
</svg>
