<svg version="1" xmlns="http://www.w3.org/2000/svg" width="2069.333" height="2069.333" viewBox="0 0 1552.000000 1552.000000"><path d="M356 4.3c0 3.2 3.3 7.5 32.8 42.3 71.3 84.3 102.3 124.1 135 173 25.7 38.5 53.2 88.1 69.2 124.6 4.2 9.7 4.2 9.7 7.4 9.1 1.7-.3 3.4-.8 3.8-1.2 1.6-1.5-27.1-59.1-42.7-85.5-35.6-60.7-73.4-111-155-206.6-11-12.9-26.9-31.5-35.3-41.3C356.5 1.5 356 1 356 4.3zM471 20.3c0 3.8 1.1 5.7 10 16.7 53.8 66.5 92 137 130.8 241 10.3 27.7 24.1 64.9 28.2 76.2 2.3 6.4 5.1 12.5 6.2 13.4 1.8 1.7 2 1.7 3.9-.2l2-2.1-8.7-22.9c-28.7-76-35.1-92.2-49.6-126.4-9.6-22.8-32.8-69.2-44.4-89-21.2-36.1-50.9-78.1-75.3-106l-3-3.5-.1 2.8zM884.5 310.7c-24.8 5.3-46.8 22.7-60 47.6-9.1 17.1-11.8 27.5-14 54.5-2.8 34.7-8.5 98.8-9.5 107.2-.5 4.7-1.4 14.3-2 21.5-2.5 31.2-5.1 61.2-5.5 64.1-.5 3-.8 3.2-15.3 7.7-8.1 2.6-15.3 4.7-16 4.7-.9 0-1.1 1.3-.7 4.7.3 2.7 1 10.2 1.5 16.9l1 12 10.6 21.9c10 20.8 10.5 22.2 10.2 27.5l-.3 5.5 7.6 9.5c26.5 33.4 34.3 43.7 34.2 45.3-.3 3.4-4.3 8.4-8.1 10.1-7.4 3.4-8.4 2.7-22.5-14.9l-12.8-16-5.4.3-5.4.4-.7-3.6c-.5-2.8-.2-4.2 1.1-5.6.9-1 1.5-2.3 1.4-2.9-.4-.8-24.6-31.8-30.4-38.9-2-2.3-2.2-2.4-5.8-.9-2.9 1.3-3.7 2.2-3.7 4.1 0 1.5-.4 2.6-.8 2.6-.5 0-6.2-6.7-12.7-15l-11.8-15-4.8 4.1c-2.9 2.5-4.6 4.6-4.2 5.2.4.7 5.1 6.8 10.5 13.6 7 8.7 9.5 12.7 8.8 13.5-.5.7-.7 2.8-.4 4.7.6 3.9-2.2 7.9-5.7 7.9-2.6 0-5.8 6.8-3.7 8.1.7.5 1.6.9 2.1.9.4 0 .7 1.4.7 3.2 0 2.3-.8 3.8-2.7 5.4-2.5 1.9-2.6 2.5-1.7 5 .8 2.2 1.6 2.8 3.3 2.6 4.6-.5 6.5 3.5 3.9 7.9-1.1 1.8-1 2.3 1.1 4 2.2 1.8 2.5 1.8 5.2.2 2.3-1.4 3.3-1.5 5.3-.5 3.3 1.5 3.3 3 0 4.2-5.5 2.1-9.5 1.3-13.5-3-2.1-2.2-4.7-4-5.8-4-1.4 0-7.7-7.3-21-24-10.5-13.2-19.4-24-19.8-24-.5 0-2.8 1.8-5.2 3.9l-4.4 3.8 15.9 20.2c8.7 11.1 16 20.5 16.1 20.9.2.4-2 .8-4.8.9-2.8.1-5.9.5-6.9.8-1.4.4-4.7-3.1-15-16.2-7.3-9.2-13.6-17.2-14.1-17.7-.9-1-18.9 13-18.9 14.7 0 .7 4.1 6.4 9.1 12.7 5 6.3 10.3 13 11.6 14.7l2.5 3.3-3.1 3.5c-6.7 7.7-9.3 16.4-6.7 22.6 1.5 3.5 26.7 32.3 35.1 40 3.6 3.4 4.3 4.6 4.8 9.2 2.5 21.3 18.6 38 42.7 44.4 9.5 2.5 28.9 2.3 40-.5 17.1-4.2 33-11.8 46.5-22.2 5.2-4 15.2-14 19.3-19.4l2.3-2.9 3.9 3.8c2.2 2.2 4 4.5 4 5.3 0 .7-1.6 3.3-3.5 5.6-1.9 2.4-3.5 4.7-3.5 5.3 0 .5 4 5.6 8.9 11.3l9 10.3-2.5 3.3c-5.7 7.5-22.5 19.5-33.3 23.7-4.3 1.8-4.4 1.8-6-.5-.8-1.3-4.7-5.9-8.5-10.3s-7.3-8.4-7.6-8.8c-.4-.5-4.5.3-9.1 1.7-14.2 4.3-22.8 5.7-34.9 5.8-18.7 0-33.4-3.6-52-12.9-5.7-2.9-10.6-5.1-10.7-4.9-.2.2 4.4 5.9 10.2 12.8 10 11.8 11.1 12.8 18.3 16.1 10.6 5 18 7.5 29.8 10l10.1 2.2-3.4 6.2-3.4 6.1-9.2-2.4c-5.1-1.4-11.3-3.1-13.8-3.8l-4.6-1.4-9.1 7.1c-10.5 8.3-8.3 4.2-23.2 44.6-5.6 15.1-10.5 28.2-11.1 29.2-.5 1.1-2.3 1.9-4.5 2.1l-3.6.3-12.4 36.4c-6.8 20-12.4 36.8-12.4 37.2 0 .5.9.9 2 .9s2 .4 2 .9c0 1-6.4 18.7-20.4 56.3-5.2 14.2-9.6 26.4-9.8 27.2-.2 1 7.1 6 22.7 15.3l23 13.8.3 20.6.2 20.7-7.6.7-7.6.7.8 7.6c.3 4.3 1 9.7 1.3 12.2l.7 4.5 6.1-.2 6-.1.7 5.1c.3 2.9.6 9.7.6 15.3v10.1l-6.7.6c-3.8.4-9.1.7-12 .7-2.8 0-5.4.3-5.7.8-.2.4 0 6.1.6 12.6l1.1 11.8 11.4-.7 11.3-.7.2 10.6c.1 5.8.2 13.4.3 16.8v6.3l-11.5 1-11.5 1 .3 6c.1 3.3.5 8.9.8 12.4l.6 6.3 10.9-.7 10.9-.7.2 17.1c.1 9.4.2 17.9.2 18.8.1 1.6-1.1 1.8-10.6 2.1-7.1.2-11 .7-11.7 1.6-.7.8-.8 5.2-.4 13l.6 11.8 10-.7c5.5-.4 10.6-.9 11.4-1.2 1.1-.4 1.3 2.4 1.1 16.3l-.3 16.9-10.7 1.4-10.8 1.3v12c0 8.6.3 12 1.3 12.3.6.3 5.6-.1 10.9-.8 5.4-.8 10-1.2 10.3-.9.3.3.5 12.9.5 28 0 17.3.4 27.2 1 27 .5-.1 13-14.5 27.7-31.8l26.8-31.5 19.5-2.8c10.7-1.5 20-2.9 20.7-3.1 1.9-.7 15.2-24.1 14.2-25-.2-.2-6.5.5-13.9 1.5s-14.3 1.9-15.3 1.9c-1.2 0 1.3-3.7 8.5-12.2 5.7-6.7 12.3-14.3 14.8-16.8l4.5-4.7 14-1.3c22.5-2 20-.8 30.9-14.5 11.3-14.1 12-13.3-9.6-11.2-7.6.7-13.8 1.1-13.8.9 0-.2 7.2-8.8 16.1-19.2l16-18.8 8.7-.7c4.8-.4 11.5-1 14.8-1.3l6.2-.7 12.5-12.2c6.9-6.7 12.4-12.3 12.2-12.5-.2-.2-7.3.2-15.9.7-8.6.6-15.6.8-15.6.4 0-.8 25.7-31 28.2-33.1 1.2-1.1 3.7-1.8 6.2-1.8 3.7 0 5.1-.8 12.1-6.6 4.4-3.7 10-8.3 12.4-10.2l4.3-3.6 12.1.3c6.7.1 12.9.7 13.9 1.2 1.5.8 2.4-1.1 7.4-16.8 10.6-33.7 13.7-42.8 14.8-44.2.6-.8 1-2.3.8-3.5-.4-3.3.8-4.1 10.3-6.8l9-2.5 5.2-13.9c2.9-7.6 7.1-18.9 9.3-24.9 2.1-6.1 6.2-17.2 9-24.8l5.1-13.8-6.6-7.9c-3.6-4.3-7-8-7.6-8.2-1.1-.4 1.4-8.9 14.6-49.8l7.3-22.5-2.5-2.1-2.5-2.2 1.6-11.7c9-65.5-24.2-130.7-81.1-159.4-16.5-8.3-34.9-13.1-55.6-14.7-5.3-.4-9.7-.7-9.7-.8 0-1.2 10.9-24.5 16.6-35.6l7.6-14.7-11.1-21.1L874 759v-35.6l42.3-9.2c23.2-5.1 43.6-9.2 45.4-9.2 5 0 16.9-2.8 24.1-5.7 21.7-8.6 40.9-27.2 50.8-49 3.8-8.2 7.8-22.3 8.9-30.9l.7-5.2 5.1-.6c2.9-.3 20.3-1.7 38.7-3.1 18.4-1.4 40.3-3.2 48.5-3.9 8.3-.7 15.2-.9 15.5-.5.3.4 7.5.1 16-.6 8.5-.8 18.9-1.4 23-1.5 9.3 0 17.3-2 26.6-6.6 9.8-4.8 16.5-11.2 22.5-21.4 8.7-15 11.4-27.4 8.5-40.4-4.1-18.2-16-33.1-33.6-42l-9.5-4.9-11-.1c-7.4-.1-13.3.5-18 1.6-6.8 1.7-23.2 2.9-138.9 10.3-21.4 1.4-39.1 2.3-39.3 2.1-.3-.2 1.7-3.1 4.4-6.4 19.8-24.6 28.3-62.8 21.4-96.9-2-9.9-7.4-24.4-12.4-33.1-15.3-26.9-38-42.9-65.8-46.3-6.4-.7-12-2.2-17.4-4.4-15.1-6.3-31.2-8-46-4.8zM1163 497.8c0 2.5-7.3 4.1-22.5 5.2-8.8.5-44.1 3.1-78.4 5.5-51.3 3.7-62.9 4.3-65.7 3.3-2.9-1-3.6-.9-5.4.7-1.1 1-2.3 1.5-2.6 1.2-.4-.3.6-1.7 2.2-3 2.6-2.3 4-2.5 15.9-3.2 7.1-.4 43.8-2.8 81.5-5.5 78.6-5.5 75-5.3 75-4.2zm40.2 24.6c11.7 5.6 17.7 18.4 14.3 30.3-2.1 7.2-9.8 15.5-16 17.2-9.7 2.7-20.6 0-26.7-6.5-6.4-6.8-8.8-18.7-5.5-26.6 2.2-5.4 8.6-11.8 14.2-14.5 5.9-2.8 13.7-2.8 19.7.1zm-284.8 2.4c-1.3.9-6.4 7.7-6.4 8.5 0 .3 1 1.5 2.2 2.6 2 2 2.7 6.8 1.3 9.1-.4.6-6.9 1-16.6 1H883v-14h3.5c3.4 0 3.5-.1 3.5-4v-4h14.8c8.1 0 14.2.4 13.6.8zm9 .4c-1.5.7-2.8.7-4-.1-1.6-.9-1.2-1 2.1-1 3.5 0 3.7.2 1.9 1.1zm48.8 11.7c9.9 5 15.9 14.1 16 24.3 0 11.1-5.3 19.7-15.4 24.7-27 13.6-53.2-20.9-32.2-42.4 6.4-6.6 13.3-9.7 20.9-9.3 3.7.3 7.8 1.3 10.7 2.7zm161.2 15.7c1 3.7.3 3.8-2.3.4-2.1-2.9-2.1-3-.2-3 1.2 0 2.1.9 2.5 2.6zm-25.6 4.6c-3.5 6.6-3.2 17.7.4 24 5.1 8.6 10.8 10.8 18.5 7.2 4.3-2.1 8.8-9.7 9.7-16.6l.7-5 3.7 6.1c2 3.3 6 8.4 8.8 11.4 2.8 3 5.3 5.9 5.5 6.5.2.5 2.5 2.3 5.1 3.9l4.8 3-5.9.6c-3.2.4-7 1.1-8.2 1.6-1.3.5-15.2 1.9-30.9 3.1-15.7 1.2-39.2 3-52.3 4.1-13.1 1-24.3 1.9-24.8 1.9s-.9-2.7-.9-6-.1-6-.2-6c-.2 0-10.8 1.1-23.7 2.5-12.9 1.4-23.6 2.3-23.8 2.1-.3-.2.7-1.2 2.1-2.1 2.1-1.4 3-1.5 5.9-.4 4.3 1.5 6.2.8 8.7-3.3 2.5-4.2 2.5-6.9 0-9.1-2.4-2-2.5-4.5-.6-9.2 1.2-2.8 2.1-3.5 4.3-3.5 1.5 0 3.4-.4 4.1-.9 1.7-1 3.3-7.9 2.6-10.7-.5-2 0-2.1 14.8-3.3 33.7-2.6 53.7-4.3 60.8-5 4.1-.5 8.7-.9 10.3-1l2.7-.1-2.2 4.2zm-187.6 37.5c2.9 2.8 3.5 6.1 1.8 9.3-1.3 2.4 2.1 6.7 6.6 8.6 4.2 1.8 3.6 1.8 6.9-1.2 1.5-1.4 2.9-2.3 3.2-2 .8.8-3.6 7.5-5.6 8.5-1 .6-11.9 1-24.4 1.1l-22.7.1v-3.6c0-3.4-.1-3.5-4-3.5h-4v-10h37v-5c0-5.8 1.1-6.3 5.2-2.3zm-56 28.5c-.5.7-4.9 9.1-9.7 18.5l-8.6 17.3H843l8.5-16.6c4.6-9.1 8.9-17.2 9.5-17.9.6-.8 2.4-1.6 3.8-1.8 1.5-.2 3.1-.5 3.6-.6.5 0 .4.5-.2 1.1zm-115.5 90.4c2.1 2.1 2.4 3.2 2 6.1-1 5.8-8.4 12.3-14 12.3-1.3 0-3.6-.9-5.1-2.1-2.1-1.6-2.6-2.9-2.6-6.2l.1-4.2 2.7 3.3c3.5 4.2 8.2 4.4 11.7.6 2.5-2.7 3.3-6.8 1.5-7.9-.5-.3-1.5-1.5-2-2.6-1.6-3 2.5-2.5 5.7.7zm88.3 24.6c0 3.8-.4 6.8-.9 6.8-.7 0-7.1-12.1-7.1-13.4 0-.1 1.8-.1 4-.1h4v6.7zm-112.8 36.2c9.9 2.9 18.4 11.5 21 20.9 1.8 6.8-.2 14.3-5.3 20.1-17.8 20.2-53.8-5.4-42-29.8 2.5-5.1 7.1-9.1 12.8-11.2 4.9-1.7 7.9-1.7 13.5 0zm117 182c5.1 1.9 22.6 8.3 38.8 14.1 16.2 5.8 34.2 12.3 40 14.5 5.8 2.1 18.2 6.6 27.5 10 9.4 3.4 17.4 6.5 17.8 6.9.5.5-.8 5.5-2.8 11.1-2 5.6-4.3 12.3-5 14.8-.7 2.6-5.1 15.7-9.7 29.2l-8.4 24.5-8.7.3c-7.8.2-9.7-.1-17.8-3-7.2-2.6-8.9-3.6-8.6-5 .4-1.3-1-2.2-6.2-4.2-3.6-1.4-16-6.3-27.4-10.9-19.1-7.8-21.1-8.4-24.6-7.5-3.3.8-5.1.4-15.2-3.4l-11.4-4.3-.6-3.8c-.3-2.1-1-4.2-1.5-4.6-.5-.5-3.9-1.6-7.6-2.6-3.8-1-6.8-1.9-6.8-2 0-.4 16.3-48.7 21.7-64.3 2.8-8.2 5-13.2 5.9-13.2.7 0 5.5 1.6 10.6 3.4zm-55.4 163.5c10 3.8 45.4 17.1 60.2 22.6 26.5 9.9 44.5 16.9 44.8 17.6.2.5 4.2 3 8.9 5.6 4.7 2.6 8.7 5.3 8.9 5.8.4 1-9.2 29.6-21 62.5-2.4 6.9-4.7 13.6-5 15-.4 1.4-1.3 3.4-2.1 4.4-1.4 1.9-2 1.7-18.2-4.9-9.3-3.8-31.4-12.8-49.3-20-59.6-24.2-65.5-26.7-66.3-27.4-.5-.5 21.9-69.9 26.8-82.9.7-1.9 3.9-1.5 12.3 1.7zM490.4 359.4c-8.7 2-19.5 7.3-29.8 14.7-15 10.7-55.7 51.6-78.3 78.7-8.1 9.7-14.5 21-16.8 29.8-2 7.6-2.1 23.8-.1 32.9 2.1 9.9 6.9 24.8 8.2 25.2.6.2 5.5-5.4 10.9-12.4 45.5-58.8 107.8-117 159.8-149.2 6.5-4 11.5-7.7 11-8.1-1.4-1.4-15.5-6.1-27.3-9.1-13.9-3.6-28.4-4.6-37.6-2.5zM613.8 389c-26 3.2-48.7 16.2-76.5 43.8-27.5 27.4-52.3 66.3-63.3 99.1-3.7 10.9-5 26.5-3.1 36.6 1.5 8.1 6.1 17.1 11.3 22.2 6.6 6.4 19.4 13.6 32 17.8 10.7 3.7 12 3.9 23.8 3.9 10.6.1 14.1-.3 23-2.7 20.8-5.6 37.9-13.6 57.3-26.6 35.7-23.9 75.3-68 82.7-91.9 2.3-7.3 2.8-26.5.9-36.8-6.7-38-34.8-63.3-72.9-65.7-4.7-.3-11.5-.1-15.2.3z"/><path d="M1130.5 626.8c-.6.4-1.5 2-2 3.7-.7 2.2-2.4 3.7-5.8 5.4-4.7 2.3-5 2.3-8.3.7-4.8-2.2-5.5-2.1-9.3 1.8-3.1 3.2-3.2 3.6-2.1 6.8 1.1 3 1 3.9-.9 7.5-2.4 4.8-3.3 5.5-8.1 6.3-3.3.5-3.6.9-4.9 5.9-1.6 5.8-1.6 5.6 3.5 8.6 1.2.8 1.8 2.8 2.2 6.7.4 5.1.2 5.9-2.2 8.1-3.1 2.9-3.2 3.9-.6 9.6 1.8 3.8 2.3 4.2 4.5 3.7 1.5-.4 3.7 0 5.4.8 3.3 1.8 6.8 6.6 5.3 7.5-.9.6-8.2 25.8-8.2 28.4 0 .8 5.9 3 14.7 5.5 8.2 2.4 15.1 4.6 15.6 5.1.4.4-12 4.9-27.6 9.9-23.8 7.7-29.5 9.2-34.8 9.2-13.1 0-19.2 6.3-20.5 21.1-.4 4.1-4 23.1-8.1 42.4l-7.4 35 2.5 6.5c1.4 3.6 6.4 17.1 11.1 30 4.7 12.9 11.4 30.8 14.7 39.8l6.1 16.3-3 10.3-3 10.4 3.2 5.2 3.2 5.2 1.6-5.9c2.1-7.3 11.7-42.9 15.9-58.9l3.2-12-2.3-3.7c-1.2-2-2.6-3.7-3-3.7-.4 0-1.8 4.8-3 10.7-2.8 13.2-3.5 14.6-4.9 10.7-11.5-31.7-19.2-54-19.1-55.7 0-1.2 1.7-7.8 3.7-14.7l3.7-12.5 30.5-.8c16.8-.4 31.9-.5 33.5-.3 2.1.3 54.6 28.3 58.2 31 .1.1-1.1 6.4-2.8 14-1.6 7.7-2.9 14-2.9 14.2 0 .8-45.2 41.5-45.6 41.1-.3-.3.9-5.6 2.5-11.8 1.7-6.3 3.1-11.7 3.1-12.1 0-.4-1.9.4-4.3 1.7l-4.3 2.4-2.7 11.8c-1.4 6.5-5.3 23.7-8.7 38.2-3.3 14.6-5.8 26.6-5.6 26.8.2.2 2.5-.9 5.2-2.4 4.8-2.9 4.8-2.9 6.6-11.3 1-4.7 2-9.5 2.3-10.7.3-1.3 16-16.1 37.4-35.2l36.8-33 3.2-11.3c8.9-32.2 17.2-60 19.5-65.3 2.9-6.8 3.4-14.1 1.1-18.4-1.8-3.7-6.9-7.9-12-10.1-2.8-1.2-9.9-7.9-23.3-21.9-10.7-11-18.9-20.1-18.3-20.1.6 0 6.3 1.6 12.7 3.5 6.3 1.9 12.1 3.5 12.8 3.5.8 0 2.2-3.2 3.4-7.8 1.2-4.2 3-10.7 4.1-14.4l1.9-6.6-8.6-2.7c-4.8-1.5-8.9-2.9-9.1-3-.2-.2.7-1.8 1.9-3.5 2.2-3.1 2.2-3.1.5-12.3-2.4-13.4-1.8-12.6-8.2-12.9-3.4-.2-5.8-.8-6.1-1.5-.6-2.1 5.6-7.6 7.8-7 2.6.7 4.7-1.4 6-6.1 1.5-5.5 1.3-6.5-2.1-9.3-2.4-2-3.2-3.5-3.6-7.1-.5-4.1-.2-5 2.2-7.4 2.3-2.3 2.6-3.3 2.1-6.3-.9-5.7-3.6-8.6-8.4-8.9-3.4-.3-4.7-1-6.8-3.7-2.2-2.9-2.5-4.1-1.9-7.4.6-3.8.5-4.1-3.6-7-4.6-3.4-8-3.9-9.9-1.6-.8 1-3.1 1.5-7 1.5-5.8 0-7.9-1.1-9.3-5.3-.5-1.3-1.8-1.7-5.4-1.7-2.6 0-5.3.4-5.8.8zm.6 171.9c0 9.3.4 17.6.8 18.7.5 1.4 2.8-1.4 10.5-13.5 5.5-8.5 10-15.6 10.2-15.8.5-.6 42.4 32 42.4 33 0 .5-1.6 4.1-3.5 8-2.8 5.4-4 6.9-5.3 6.5-5.7-1.8-54.2-14.7-56.7-15.2-2.4-.4-34.6-7.7-50-11.3l-3-.7-.3-8.6-.3-8.6 7.3-1.2c4-.7 15.6-2.7 25.8-4.5 10.2-1.8 19.3-3.4 20.3-3.4 1.5-.1 1.7 1.4 1.8 16.6zM572 769c-.8.5-1.2 1.1-1 1.3 1.4 1.2 48.3 38.5 65.5 52.1 12.4 9.8 24.3 20.2 31.3 27.4 9.7 10.1 11 11.2 9.8 8-.8-2.1-1.9-4.4-2.3-5.2-2.2-4-19.5-20.3-32.4-30.5-8-6.4-21.1-16.8-29-23.2-31.2-25-38.8-30.9-39.6-30.9-.4 0-1.5.4-2.3 1zM673.3 837.5c0 3.3.2 4.5.4 2.7.2-1.8.2-4.5 0-6s-.4 0-.4 3.3zM489 859.1c-4.7 3.3-8.9 6.4-9.3 6.8-.7.7-3.7 17.7-4.8 26.6-.1.5-.5-1-1-3.5-2.3-11.6-13-17.2-25.6-13.4-3.2.9-6.3 1.8-7 2-2.5.5-7.4 4.6-14.8 12.7-6.1 6.4-8.8 10.5-13.1 19.1-2.9 6-5.6 12.8-5.9 15.1-1.1 6.9-.7 6.8-15.5 5.6-7.3-.6-13.8-1.5-14.4-2-.6-.5-3.1-1.1-5.4-1.2-4.2-.3-4.5-.2-5.9 3.1-2.4 5.4-2.2 15.7.4 20.6 2.3 4.4 9.9 12.4 11.7 12.4.6 0 2 2.4 3 5.2 2.7 7.9 10.6 15.2 18.1 16.9 10 2.2 34.2-1.6 42.5-6.8 1.4-.8 3.7-2.9 5.1-4.5l2.6-3.1 2.2 3.1c1.3 1.9 2.3 5 2.5 7.8.3 4.7.6 5.1 6.8 8.4 4.8 2.6 6.7 2.5 10.1-.6l2.9-2.4-1.7-10.8c-.9-5.9-1.9-11.6-2.2-12.6-.4-1.5.5-1.1 3.6 1.6 10.4 8.8 22.8 6.4 30.9-5.9l3.7-5.8.1-11.5c0-6.3.8-16.5 1.7-22.5.9-6.1 2-13.9 2.4-17.5l.8-6.5 5.7-.3 5.7-.3 5.9 8.8c3.2 4.8 7.3 10.8 9 13.2l3.2 4.5-3 1.9c-2.9 1.9-3 2.1-3 9.9v8.1l9.2-.7c5-.3 15.6-.6 23.5-.6H584v-15h-14.9l-21-29.5c-11.6-16.2-21.1-29.6-21.1-29.8 0-.3 4.1-3 9-6.1 5-3.2 9-5.9 9-6.2 0-.2-10.7-.4-23.7-.3h-23.8l-8.5 6zm4.6 72.8c4.6 2.8 7.8 10.1 7 15.9-.7 5.4-2.8 8.7-7.7 12-4.4 3.1-9.9 2.5-14.1-1.5-6-5.6-7.3-12.6-3.7-20.1 2.5-5.1 7-8.2 11.9-8.2 1.9 0 4.9.9 6.6 1.9z"/></svg>